<svg id="Layer_1" height="1000" viewBox="0 0 520 520" width="1000" xmlns="http://www.w3.org/2000/svg" data-name="Layer 1">
    <path d="m206.998 128.378-51.384-102.534-56.396 82.728 79.83 45.009z"/>
    <path d="m175 162.624-78-43.811v274.374l78-43.811z"/>
    <path d="m332.952 153.581 79.83-45.009-56.396-82.728-51.384 102.534z"/>
    <path d="m215.1 135-30.1 26.927v188.146l30.1 26.927h81.8l30.1-26.927v-188.146l-30.1-26.927zm-6.1 121.974a5 5 0 0 1 -10 0v-67.844a5 5 0 0 1 10 0zm0-87.215a5 5 0 1 1 -10 0v-3.649a5 5 0 0 1 10 0z"/>
    <path d="m295.74 125 51.888-104h-183.256l51.888 104z"/>
    <path d="m337 349.376 78 43.811v-274.374l-78 43.811z"/>
    <path d="m179.048 358.419-79.83 45.009 56.396 82.728 51.384-102.534z"/>
    <path d="m305.002 383.622 51.384 102.534 56.396-82.728-79.83-45.009z"/>
    <path stroke="#fff" stroke-width="1%" d="m216.26 387-51.888 104h183.256l-51.888-104z"/>
</svg>