<?xml version='1.0' encoding='utf-8'?>
<svg xmlns="http://www.w3.org/2000/svg" viewBox="0 0 500 500"><defs><style>.a{fill:#fff;}.b{isolation:isolate;}.c{fill:#e07210;}.d,.n{fill:#e1effa;}.e{fill:#20364d;}.f,.u{fill:#50667e;}.g,.h{fill:#f15424;}.h,.t{mix-blend-mode:screen;}.i{fill:#21d8de;}.j{fill:#06b2b8;}.k{fill:#ff6d3b;}.l{fill:#16c6cc;}.m{fill:#f2f9ff;}.n{mix-blend-mode:multiply;}.o{fill:#e64717;}.p{fill:#b8d1e6;}.q{fill:#cee2f2;}.r{fill:#2a445e;}.s{clip-path:url(#a);}.u{fill-rule:evenodd;}</style><clipPath id="a"><path class="a" d="M231.20421,176.384a16.0554,16.0554,0,0,0-5.78269,13.86511,16.79274,16.79274,0,0,0,20.34227-17.556A16.0654,16.0654,0,0,0,231.20421,176.384Z"/></clipPath></defs><title>116</title><g class="b"><rect class="c" width="500" height="500"/><path class="d" d="M125.66844,407.95775a4.87782,4.87782,0,0,0,6.61021,1.98084l15.75022-8.4896a4.87326,4.87326,0,0,0,1.98144-6.61022l-29.74673-55.20125L95.92474,352.74988Z"/><path class="a" d="M135.0878,408.4194,132.2773,409.94a4.90434,4.90434,0,0,1-1.87563.56008L98.528,351.34253l4.50821-2.42472Z"/><path class="e" d="M138.82583,374.08363l.85839-.45789a4.85283,4.85283,0,0,0,1.97256-6.589l-2.31214-4.29869a4.87889,4.87889,0,0,0-6.58959-1.97045l-.85857.45788Z"/><path class="f" d="M219.04054,289.05918a26.01267,26.01267,0,1,1-31.13271-19.60141A26.01335,26.01335,0,0,1,219.04054,289.05918Z"/><rect class="a" x="223.55509" y="282.80951" width="31.24755" height="3.34827" transform="translate(-57.09634 60.0767) rotate(-12.80336)"/><rect class="a" x="212.08214" y="258.32281" width="31.24726" height="3.34735" transform="translate(-113.63636 314.15958) rotate(-57.80436)"/><polygon class="a" points="253.528 318.43 227.086 301.779 225.302 304.62 251.745 321.26 253.528 318.43"/><path class="d" d="M134.50273,274.29231,116.54319,278.375l14.67716,64.56462,17.958-4.07968a69.55906,69.55906,0,0,1,60.54875,14.82633L182.694,234.74931A69.55443,69.55443,0,0,1,134.50273,274.29231Z"/><path class="a" d="M138.04957,289.89261,120.09018,293.973l-2.47394-10.87218,17.9624-4.08269a69.55281,69.55281,0,0,0,48.1899-39.543l2.47228,10.87369A69.56153,69.56153,0,0,1,138.04957,289.89261Z"/><path class="e" d="M223.321,350.59279a6.9819,6.9819,0,0,1-5.25344,8.34405h0a6.97672,6.97672,0,0,1-8.3433-5.25494L182.694,234.74931a6.968,6.968,0,0,1,5.25193-8.34179h0a6.97191,6.97191,0,0,1,8.3433,5.25132Z"/><path class="g" d="M131.60553,344.63959,87.4315,354.68A24.38707,24.38707,0,0,1,58.239,336.2993l-4.63465-20.39209a24.39159,24.39159,0,0,1,18.3798-29.19327l44.174-10.04041Z"/><path class="h" d="M60.53064,313.73762a2.27463,2.27463,0,0,1-.419.0587,2.43339,2.43339,0,0,1-2.55916-2.30852A19.85908,19.85908,0,0,1,72.9896,291.13394l15.29008-3.47564a2.438,2.438,0,1,1,1.07892,4.75521L74.07,295.88916a14.997,14.997,0,0,0-11.64917,15.348A2.43906,2.43906,0,0,1,60.53064,313.73762Z"/><path class="e" d="M58.239,336.2993l1.35678-.30872a3.48949,3.48949,0,0,0,2.62672-4.17074l-3.08987-13.59538a3.48543,3.48543,0,0,0-4.1715-2.626l-1.35678.30872Z"/><rect class="i" x="237.89167" y="174.50197" width="71.3555" height="40.367" transform="translate(-53.9354 120.63646) rotate(-22.69714)"/><path class="j" d="M264.56549,193.452l-8.24185,3.45066.51447,1.22733,7.82868-3.27575A12.59134,12.59134,0,0,1,264.56549,193.452Z"/><path class="j" d="M281.32253,190.72158c.09408.19778.19688.39466.28223.60118.08823.20651.15864.41829.23074.62556l10.32023-4.31721-.51147-1.22733Z"/><path class="j" d="M265.53258,198.04692c-.08366-.208-.1573-.41589-.22924-.6224l-10.32324,4.3163.516,1.22673,10.31872-4.3172C265.72073,198.45046,265.61943,198.25494,265.53258,198.04692Z"/><path class="j" d="M287.76959,185.19029l-.516-1.22734-8.24034,3.4484a11.93968,11.93968,0,0,1,.92467,1.05319Z"/><path class="j" d="M282.56751,195.91857l8.24618-3.44855-.51146-1.22734-7.83033,3.275A11.31407,11.31407,0,0,1,282.56751,195.91857Z"/><path class="j" d="M267.19958,200.90589l-7.82882,3.275.51146,1.22749,8.24637-3.44856A11.54038,11.54038,0,0,1,267.19958,200.90589Z"/><path class="j" d="M271.20942,190.18513l1.48759,3.552c-1.32879.15067-2.43119.11184-2.83113-.84291A2.16525,2.16525,0,0,1,271.20942,190.18513Zm3.33239,4.97121,1.66531,3.98275c1.58016-.87241,1.72722-2.09614,1.37741-2.93544C277.10828,195.063,275.91617,195.0138,274.54181,195.15634Zm9.3531-4.79194c2.78537,6.65146.41589,13.98477-5.28595,16.36975-5.70318,2.38574-12.58238-1.07455-15.36789-7.73023-2.784-6.65582-.41453-13.98041,5.2888-16.3669C274.23456,180.25144,281.11226,183.70647,283.89491,190.3644Zm-4.864,5.0999c-.94948-2.27179-3.1427-2.14309-5.15063-1.891l-1.59189-3.80273a4.641,4.641,0,0,1,3.14269.26311l.42781-1.42663a5.72714,5.72714,0,0,0-4.12321-.15428l-.67026-1.60364-1.06267.44464.66289,1.58452c-2.024,1.02459-3.0104,2.92881-2.2578,4.73023.89665,2.141,2.978,1.97195,4.9521,1.71607l1.77567,4.23713a5.13443,5.13443,0,0,1-3.78647-.3477l-.39978,1.48833a6.136,6.136,0,0,0,4.73309.16979l.64679,1.54117,1.06131-.44238-.64678-1.54568C279.36307,199.09574,279.6924,197.0437,279.03087,195.4643Z"/><path class="j" d="M288.44873,168.908l-43.68018,18.27188-9.09439,3.80408,3.80423,9.09439,6.31625,15.094,3.80559,9.09575,9.09289-3.80408,43.67717-18.27323,9.09138-3.80423-3.80273-9.09364-6.31475-15.09531-3.80408-9.0959ZM305.604,189.92353a8.5378,8.5378,0,0,0-3.93639,4.44574,8.655,8.655,0,0,0-.31459,5.93333l-43.29349,18.11082a8.6643,8.6643,0,0,0-4.445-3.94166,8.53642,8.53642,0,0,0-5.92822-.31819l-6.15007-14.70351a8.57,8.57,0,0,0,3.93337-4.44951,8.65616,8.65616,0,0,0,.31308-5.93483l43.295-18.11233a8.68132,8.68132,0,0,0,4.445,3.94678,8.57752,8.57752,0,0,0,5.93273.32045Z"/><rect class="i" x="364.40359" y="285.80583" width="29.6676" height="52.44512" transform="translate(17.16526 643.82123) rotate(-81.94809)"/><path class="j" d="M374.017,307.86886l-6.50591-.91937-.13516.96874,6.17807.873A8.18444,8.18444,0,0,1,374.017,307.86886Z"/><path class="j" d="M385.62793,312.43743c-.01622.16091-.028.322-.053.48588-.01912.16376-.05434.32331-.08384.48211l8.13754,1.15087.13821-.96859Z"/><path class="j" d="M372.89984,311.13137c.02348-.16241.05735-.32121.08821-.47835l-8.14191-1.151-.13516.96724,8.13889,1.15087C372.86748,311.45845,372.87775,311.296,372.89984,311.13137Z"/><path class="j" d="M391.775,311.36588l.13817-.9695-6.5044-.91862a8.3954,8.3954,0,0,1,.19116,1.01571Z"/><path class="j" d="M384.45929,316.18943l6.50576.91862.13682-.96784-6.17653-.87316A8.48045,8.48045,0,0,1,384.45929,316.18943Z"/><path class="j" d="M372.88076,313.56482l-6.17961-.87316-.13668.96874,6.50294.918A8.03878,8.03878,0,0,1,372.88076,313.56482Z"/><path class="j" d="M379.438,308.29889l-.3924,2.80313c-.89962-.40354-1.58016-.84231-1.47284-1.59776A1.58979,1.58979,0,0,1,379.438,308.29889Zm.23677,4.39277-.44253,3.14194c1.32593.042,1.87713-.67538,1.97121-1.33751C381.33135,313.59718,380.5964,313.11793,379.67473,312.69166Zm7.70961.48813c-.74071,5.24757-4.98731,8.98707-9.48966,8.35279-4.49948-.635-7.54223-5.40637-6.80288-10.65544.74086-5.25358,4.99051-8.98782,9.487-8.35278C385.07959,303.16,388.1267,307.927,387.38434,313.17979Zm-4.98445,1.39276c.2485-1.79194-1.18324-2.53355-2.5474-3.1281l.42492-3.00226a3.40875,3.40875,0,0,1,1.88589,1.34865l.80254-.74236a4.18919,4.18919,0,0,0-2.54438-1.647l.17927-1.26346-.83494-.11907-.18077,1.25022c-1.66249-.11319-3.00148.71948-3.20155,2.13949-.23812,1.68958,1.14082,2.36436,2.48131,2.94566l-.47037,3.34259a3.79451,3.79451,0,0,1-2.2608-1.64262l-.80992.78933a4.50145,4.50145,0,0,0,2.92667,1.886l-.1749,1.2171.84216.11906.17057-1.2171C381.24013,316.992,382.22212,315.819,382.39989,314.57255Z"/><path class="j" d="M398.32064,301.33586l-34.45634-4.87127-7.1718-1.01134-1.0127,7.17241-1.6816,11.90941-1.01571,7.17316,7.17316,1.01345,34.45484,4.86916,7.17767,1.0142,1.01138-7.17617,1.68292-11.907,1.01138-7.17392Zm2.9413,19.72047a6.27786,6.27786,0,0,0-4.15689,1.3309,6.37113,6.37113,0,0,0-2.42548,3.62932L360.52612,321.19a6.38262,6.38262,0,0,0-1.32446-4.16051,6.287,6.287,0,0,0-3.62764-2.42833l1.63882-11.59919a6.61664,6.61664,0,0,0,6.58373-4.96383l34.15515,4.825a6.369,6.369,0,0,0,1.32577,4.16352,6.297,6.297,0,0,0,3.62331,2.43119Z"/><polygon class="g" points="311.055 340.265 308.506 336.823 295.757 357.178 299.967 357.963 311.055 340.265"/><polygon class="k" points="308.506 336.823 295.757 357.178 287.246 337.679 308.506 336.823"/><polygon class="a" points="311.65 340.533 291.493 327.909 280.311 345.76 304.796 361.095 313.268 347.574 311.65 340.533"/><path class="l" d="M306.75944,349.89528a6.77272,6.77272,0,1,1-2.14762-9.33312A6.77465,6.77465,0,0,1,306.75944,349.89528Z"/><path class="m" d="M303.94306,342.65017a5.304,5.304,0,0,0-7.15856,1.61763,4.05094,4.05094,0,0,0,1.3362,5.696,5.05373,5.05373,0,0,0,2.74875.74958l-.0161-.41528a4.48038,4.48038,0,0,1-2.45784-.67388,3.63577,3.63577,0,0,1-1.211-5.13663,4.83548,4.83548,0,0,1,6.48224-1.47885,3.54741,3.54741,0,0,1,1.17736,5.11691c-.96121,1.53229-2.04751,1.5353-2.4783,1.26331a.61955.61955,0,0,1-.16015-.90763,1.70656,1.70656,0,0,1,.16753-.2169l2.51954-2.61347-.75561-.47474-.57468.59756a1.76492,1.76492,0,0,0-.879-1.75731,3.29322,3.29322,0,0,0-4.3598,1.15313,1.956,1.956,0,0,0,.56595,2.87658,2.63463,2.63463,0,0,0,2.37971.12794l-.04846.07857a1.13061,1.13061,0,0,0,.44689,1.53244c.93036.58582,2.47834.31895,3.56445-1.41624A4.02594,4.02594,0,0,0,303.94306,342.65017Zm-2.16085,4.94908a2.46386,2.46386,0,0,1-2.26954-.02859,1.31468,1.31468,0,0,1-.363-1.94472,2.4609,2.4609,0,0,1,3.28825-.89664,1.43215,1.43215,0,0,1,.63643,1.52943Z"/><polygon class="g" points="311.65 340.533 308.938 344.862 313.268 347.574 311.65 340.533"/><polygon class="n" points="308.506 336.823 278.737 318.179 265.993 338.534 295.757 357.178 289.91 341.102 308.506 336.823"/><polygon class="k" points="287.246 337.679 265.993 338.534 278.737 318.179 287.246 337.679"/><polygon class="g" points="295.757 357.178 265.993 338.534 287.246 337.679 295.757 357.178"/><polygon class="o" points="278.737 318.179 285.441 340.563 308.506 336.823 278.737 318.179"/><path class="p" d="M337.02937,200.82957a18.1571,18.1571,0,1,1-18.1519-18.14468A18.17475,18.17475,0,0,1,337.02937,200.82957Z"/><path class="q" d="M337.02937,199.533a18.1571,18.1571,0,1,1-18.1519-18.14529A18.174,18.174,0,0,1,337.02937,199.533Z"/><path class="m" d="M318.87747,213.56263a14.03332,14.03332,0,1,1,14.03038-14.03325A14.02859,14.02859,0,0,1,318.87747,213.56263Z"/><path class="p" d="M318.13947,207.497a8.18606,8.18606,0,0,1-5.396-2.40832l1.52567-2.10787a6.63685,6.63685,0,0,0,3.87031,2.08575v-4.49647c-2.38408-.59907-4.88737-1.45824-4.88737-4.46863,0-2.36361,1.8991-4.23983,4.88737-4.495v-2.12986h1.85365V191.63a7.83694,7.83694,0,0,1,4.65665,2.10787l-1.53157,2.01456a6.152,6.152,0,0,0-3.12508-1.64548v4.00833c2.4062.62481,5.02268,1.53019,5.02268,4.6333,0,2.36285-1.54929,4.44725-5.02268,4.74844v2.08439h-1.85365Zm0-9.86746v-3.6352c-1.30079.15955-2.10637.87828-2.10637,1.89775C316.0331,196.79685,316.91213,197.25759,318.13947,197.62953Zm1.85365,3.42778v4.03136c1.59776-.23375,2.24454-1.18187,2.24454-2.0859C322.23766,201.96208,321.26892,201.452,319.99312,201.05731Z"/><path class="p" d="M305.97448,200.64865a14.01163,14.01163,0,0,1,23.36289-10.4584A14.02488,14.02488,0,1,0,309.54781,210.004,13.95309,13.95309,0,0,1,305.97448,200.64865Z"/><path class="p" d="M363.76285,157.2817a8.69236,8.69236,0,1,1-8.69156-8.68648A8.70241,8.70241,0,0,1,363.76285,157.2817Z"/><path class="q" d="M363.76285,156.66141a8.69236,8.69236,0,1,1-8.69156-8.688A8.70174,8.70174,0,0,1,363.76285,156.66141Z"/><path class="m" d="M355.07129,163.37744a6.71822,6.71822,0,1,1,6.72036-6.71678A6.71342,6.71342,0,0,1,355.07129,163.37744Z"/><path class="p" d="M354.71994,160.47512a3.91856,3.91856,0,0,1-2.58412-1.15463l.73348-1.00758a3.17206,3.17206,0,0,0,1.85064.99734V157.159c-1.14515-.2881-2.34013-.70052-2.34013-2.141a2.28072,2.28072,0,0,1,2.34013-2.152v-1.01932h.88626v1.03106a3.742,3.742,0,0,1,2.22995,1.01059l-.73063.96362a2.95282,2.95282,0,0,0-1.49932-.788v1.92048c1.15392.29547,2.41075.73123,2.41075,2.21671a2.29805,2.29805,0,0,1-2.41075,2.27389v.99735h-.88626Zm0-4.72511v-1.7403c-.62029.07646-1.00848.42115-1.00848.90913C353.71146,155.35023,354.13336,155.5715,354.71994,155.75Zm.88626,1.64127v1.92921c.76735-.11018,1.07606-.56445,1.07606-.9981C356.68226,157.82417,356.21625,157.58093,355.6062,157.39128Z"/><path class="p" d="M348.896,157.195a6.70789,6.70789,0,0,1,11.18465-5.00583,6.71445,6.71445,0,1,0-9.47505,9.48544A6.69607,6.69607,0,0,1,348.896,157.195Z"/><path class="p" d="M373.41718,268.47879A13.71723,13.71723,0,1,1,359.7,254.77323,13.73277,13.73277,0,0,1,373.41718,268.47879Z"/><path class="q" d="M373.41718,267.49831A13.71723,13.71723,0,1,1,359.7,253.79214,13.73276,13.73276,0,0,1,373.41718,267.49831Z"/><path class="m" d="M359.7,278.09865a10.60215,10.60215,0,1,1,10.60395-10.6032A10.59829,10.59829,0,0,1,359.7,278.09865Z"/><path class="p" d="M359.14736,273.51623a6.1849,6.1849,0,0,1-4.07758-1.819l1.15671-1.5934a4.99687,4.99687,0,0,0,2.92087,1.57579v-3.39632c-1.80371-.45277-3.69243-1.10091-3.69243-3.375,0-1.78517,1.43313-3.20366,3.69243-3.39618v-1.6095h1.39784V261.529a5.915,5.915,0,0,1,3.51749,1.59415l-1.15385,1.5213a4.64974,4.64974,0,0,0-2.36364-1.24269V266.429c1.82113.47264,3.79971,1.15539,3.79971,3.49913,0,1.78517-1.17586,3.3602-3.79971,3.58809v1.57428h-1.39784Zm0-7.45463v-2.74669c-.982.12132-1.59494.66455-1.59494,1.43686C357.55242,265.43318,358.22117,265.78073,359.14736,266.0616Zm1.39784,2.58848v3.04712c1.20671-.17791,1.69485-.89589,1.69485-1.5773C362.24005,269.33434,361.51244,268.94992,360.5452,268.65008Z"/><path class="p" d="M349.95584,268.34212a10.58329,10.58329,0,0,1,17.64647-7.9A10.59326,10.59326,0,1,0,352.65466,275.408,10.55178,10.55178,0,0,1,349.95584,268.34212Z"/><path class="p" d="M361.8505,322.97305a6.91306,6.91306,0,1,1-6.91156-6.91006A6.92007,6.92007,0,0,1,361.8505,322.97305Z"/><path class="q" d="M361.8505,322.47769a6.91306,6.91306,0,1,1-6.91156-6.9093A6.91878,6.91878,0,0,1,361.8505,322.47769Z"/><path class="m" d="M354.93894,327.82158a5.34427,5.34427,0,1,1,5.34465-5.34464A5.34411,5.34411,0,0,1,354.93894,327.82158Z"/><path class="p" d="M354.65958,325.51156a3.12549,3.12549,0,0,1-2.0564-.91712l.5821-.80332a2.53017,2.53017,0,0,0,1.4743.796v-1.714c-.90986-.22788-1.86238-.55557-1.86238-1.70283a1.81136,1.81136,0,0,1,1.86238-1.71035v-.8113h.70564v.82093a2.97891,2.97891,0,0,1,1.7742.80182l-.58359.76795a2.33251,2.33251,0,0,0-1.19061-.62691V321.939c.91862.23887,1.91521.5813,1.91521,1.76318a1.82573,1.82573,0,0,1-1.91521,1.8094v.79384h-.70564Zm0-3.75772v-1.38553c-.49536.06186-.80392.3352-.80392.72324C353.85566,321.437,354.19225,321.61265,354.65958,321.75384Zm.70564,1.30515v1.53545c.61005-.08971.854-.4499.854-.79459C356.21926,323.40368,355.84884,323.20966,355.36522,323.059Z"/><path class="p" d="M350.02644,322.904a5.33324,5.33324,0,0,1,8.8945-3.9835,5.34044,5.34044,0,1,0-7.53621,7.54434A5.32043,5.32043,0,0,1,350.02644,322.904Z"/><path class="a" d="M426.99281,269.34819l1.23908-5.68633,6.99107,1.52356a2.90506,2.90506,0,0,1,2.22238,3.46316h0a2.91573,2.91573,0,0,1-3.46164,2.22257Z"/><path class="a" d="M425.69338,275.31388l1.23923-5.68045L432.53,270.852a2.90051,2.90051,0,0,1,2.21805,3.463h0a2.90323,2.90323,0,0,1-3.45577,2.22031Z"/><path class="a" d="M424.39259,281.2862l1.24058-5.68422,4.22749.92088a2.91793,2.91793,0,0,1,2.21806,3.46466h0a2.90139,2.90139,0,0,1-3.45864,2.21956Z"/><path class="a" d="M423.09165,287.257l1.23907-5.68633,2.85461.62315a2.92213,2.92213,0,0,1,2.22408,3.46466h0a2.91245,2.91245,0,0,1-3.46316,2.22032Z"/><rect class="a" x="399.69231" y="270.16401" width="15.51814" height="2.64997" transform="translate(55.36291 611.71922) rotate(-77.69464)"/><path class="a" d="M428.35682,263.69061l-5.14024,23.59289-11.92687-2.60037a5.80779,5.80779,0,0,1-4.445-6.9233l2.68993-12.33553a4.81593,4.81593,0,0,1,2.30777-3.16182c.01761-.00587.03672-.02122.05584-.0301a2.20823,2.20823,0,0,0,.19552-.10657,23.53027,23.53027,0,0,0,6.13251-4.74483l5.74439-6.18184a2.90694,2.90694,0,0,1,4.11129-.15428,2.90849,2.90849,0,0,1,.92615,2.02328,2.86749,2.86749,0,0,1-.77623,2.08515l-6.5616,7.07834Z"/><rect class="l" x="395.76876" y="270.4189" width="20.39293" height="1.49633" transform="translate(54.64989 610.16099) rotate(-77.71862)"/><rect class="r" x="387.41628" y="263.77433" width="24.14877" height="11.96008" transform="translate(50.85834 602.64431) rotate(-77.70579)"/><rect class="e" x="392.16722" y="269.6728" width="12.07527" height="11.95959" transform="translate(44.09213 606.03969) rotate(-77.70731)"/><path class="a" d="M399.56559,279.70093a1.41263,1.41263,0,1,1,1.67573-1.08194A1.41411,1.41411,0,0,1,399.56559,279.70093Z"/><path class="k" d="M246.22092,172.29844a14.03955,14.03955,0,1,1-19.80281-1.45523A14.03909,14.03909,0,0,1,246.22092,172.29844Z"/><path class="a" d="M231.20421,176.384a16.0554,16.0554,0,0,0-5.78269,13.86511,16.79274,16.79274,0,0,0,20.34227-17.556A16.0654,16.0654,0,0,0,231.20421,176.384Z"/><g class="s"><path class="i" d="M230.187,175.20964a6.71874,6.71874,0,1,0,9.47656.69735A6.7176,6.7176,0,0,0,230.187,175.20964Z"/><path class="r" d="M232.28747,177.64384a3.50513,3.50513,0,1,0,4.94336.3623A3.5069,3.5069,0,0,0,232.28747,177.64384Z"/><path class="m" d="M233.20037,178.98361a1.22966,1.22966,0,1,1-1.08931,1.12965A1.115,1.115,0,0,1,233.20037,178.98361Z"/></g><path class="f" d="M225.53471,169.81863a.26734.26734,0,0,1-.37931-.03011l-2.55462-2.95816a.26973.26973,0,1,1,.41-.35056l2.55194,2.95892A.26651.26651,0,0,1,225.53471,169.81863Z"/><path class="f" d="M221.05585,176.40837a.27.27,0,0,1-.34243.16452l-3.691-1.28694a.2696.2696,0,0,1,.17942-.50846l3.68938,1.286A.26693.26693,0,0,1,221.05585,176.40837Z"/><path class="f" d="M220.46943,184.35174a.26561.26561,0,0,1-.20727.31459l-3.841.732a.27048.27048,0,0,1-.31594-.2154.26653.26653,0,0,1,.216-.31308l3.83508-.732A.26478.26478,0,0,1,220.46943,184.35174Z"/><path class="f" d="M232.70941,166.35111a.26623.26623,0,0,1-.31308-.21239l-.732-3.8402a.26863.26863,0,1,1,.52772-.1007l.73348,3.8387A.271.271,0,0,1,232.70941,166.35111Z"/><path class="f" d="M240.65425,166.93693a.26689.26689,0,0,1-.16316-.34334l1.28468-3.69089a.269.269,0,0,1,.50861.17566l-1.28619,3.69465A.27062.27062,0,0,1,240.65425,166.93693Z"/><path class="r" d="M383.22007,389.15681A21.22514,21.22514,0,1,1,371.746,361.41725,21.22823,21.22823,0,0,1,383.22007,389.15681Z"/><path class="a" d="M381.06222,388.26016a18.88825,18.88825,0,1,1-10.21291-24.68069A18.89153,18.89153,0,0,1,381.06222,388.26016Z"/><polygon class="j" points="369.229 368.867 368.252 368.46 369.638 365.113 370.616 365.519 369.229 368.867"/><rect class="j" x="349.04899" y="373.39176" width="1.05525" height="3.62556" transform="translate(-131.15986 553.73943) rotate(-67.39899)"/><rect class="j" x="355.97862" y="394.53453" width="3.62828" height="1.05574" transform="translate(-144.33636 573.82569) rotate(-67.43035)"/><rect class="j" x="377.12552" y="385.03337" width="1.05541" height="3.62773" transform="translate(-124.55625 586.99313) rotate(-67.41782)"/><path class="r" d="M373.72439,377.20721l-10.29223,3.24038a.60568.60568,0,0,0,.36155,1.15614l10.29388-3.24414Z"/><path class="r" d="M364.08767,380.65335l-4.25394-5.4321-.94816.74748,4.254,5.4306a.60321.60321,0,1,0,.94812-.746Z"/><polygon class="g" points="353.244 389.987 365.566 379.707 365.262 379.341 352.938 389.619 353.244 389.987"/><path class="g" d="M364.79033,381.51177a1.27138,1.27138,0,1,1-.69088-1.65512A1.2752,1.2752,0,0,1,364.79033,381.51177Z"/><path class="q" d="M370.84931,363.57947a18.88805,18.88805,0,1,0,10.21291,24.68069A18.88829,18.88829,0,0,0,370.84931,363.57947Zm-14.12445,34.0558a17.98191,17.98191,0,1,1,23.49806-9.72341A17.99835,17.99835,0,0,1,356.72486,397.63527Z"/><rect class="r" x="371.658" y="367.10642" width="1.43337" height="0.35903" transform="translate(-137.61605 483.35192) rotate(-57.42707)"/><polygon class="r" points="374.276 369.663 374.008 369.422 374.977 368.366 375.246 368.61 374.276 369.663"/><polygon class="r" points="376.088 371.689 375.874 371.404 377.002 370.534 377.223 370.818 376.088 371.689"/><polygon class="r" points="377.515 373.997 377.354 373.679 378.625 373.02 378.787 373.334 377.515 373.997"/><rect class="r" x="378.44258" y="375.95312" width="1.43157" height="0.35944" transform="matrix(0.95423, -0.29906, 0.29906, 0.95423, -95.13462, 130.60658)"/><polygon class="r" points="379.085 379.177 379.041 378.82 380.454 378.634 380.507 378.989 379.085 379.177"/><polygon class="r" points="379.176 381.891 379.188 381.532 380.614 381.596 380.599 381.954 379.176 381.891"/><polygon class="r" points="378.784 384.577 378.86 384.231 380.258 384.538 380.182 384.891 378.784 384.577"/><rect class="r" x="377.17451" y="389.07107" width="0.36061" height="1.43064" transform="translate(-155.03553 494.1445) rotate(-57.01879)"/><polygon class="r" points="374.977 391.687 375.219 391.426 376.273 392.391 376.025 392.655 374.977 391.687"/><polygon class="r" points="372.956 393.498 373.236 393.284 374.107 394.419 373.823 394.637 372.956 393.498"/><polygon class="r" points="370.642 394.928 370.963 394.766 371.623 396.034 371.301 396.202 370.642 394.928"/><polygon class="r" points="368.127 395.942 368.465 395.832 368.89 397.198 368.553 397.305 368.127 395.942"/><rect class="r" x="365.55452" y="396.46765" width="0.35967" height="1.43092" transform="translate(-48.26797 50.60251) rotate(-7.42623)"/><polygon class="r" points="362.752 396.585 363.11 396.598 363.044 398.029 362.685 398.015 362.752 396.585"/><polygon class="r" points="360.06 396.196 360.409 396.276 360.098 397.673 359.753 397.593 360.06 396.196"/><polygon class="r" points="355.089 394.067 355.387 394.26 354.62 395.467 354.314 395.274 355.089 394.067"/><polygon class="r" points="352.953 392.388 353.213 392.631 352.252 393.686 351.983 393.439 352.953 392.388"/><polygon class="r" points="351.141 390.364 351.357 390.648 350.225 391.519 350.007 391.235 351.141 390.364"/><polygon class="r" points="349.709 388.057 349.875 388.373 348.605 389.034 348.44 388.716 349.709 388.057"/><polygon class="r" points="348.699 385.536 348.808 385.877 347.441 386.307 347.338 385.961 348.699 385.536"/><polygon class="r" points="348.143 382.876 348.188 383.23 346.771 383.419 346.728 383.063 348.143 382.876"/><polygon class="r" points="348.054 380.162 348.039 380.52 346.612 380.456 346.63 380.096 348.054 380.162"/><polygon class="r" points="348.445 377.472 348.365 377.824 346.968 377.513 347.047 377.162 348.445 377.472"/><rect class="r" x="349.69445" y="371.55186" width="0.35754" height="1.42684" transform="translate(-153.36822 460.24687) rotate(-56.69284)"/><polygon class="r" points="352.253 370.363 352.009 370.627 350.955 369.661 351.199 369.398 352.253 370.363"/><polygon class="r" points="354.276 368.552 353.991 368.771 353.122 367.634 353.406 367.414 354.276 368.552"/><rect class="r" x="355.91639" y="365.85327" width="0.35868" height="1.42998" transform="translate(-127.56408 201.49359) rotate(-26.98531)"/><polygon class="r" points="359.102 366.109 358.765 366.22 358.337 364.853 358.674 364.75 359.102 366.109"/><rect class="r" x="361.31621" y="364.15372" width="0.35791" height="1.42982" transform="matrix(0.99195, -0.12665, 0.12665, 0.99195, -43.29956, 48.72135)"/><polygon class="r" points="364.477 365.467 364.124 365.451 364.186 364.023 364.545 364.041 364.477 365.467"/><polygon class="r" points="367.169 365.855 366.822 365.776 367.127 364.382 367.477 364.456 367.169 365.855"/><path class="j" d="M367.57582,372.00661l.63639-1.54644a1.55487,1.55487,0,0,1,.76.90251l.33957-.1594a1.89311,1.89311,0,0,0-.95836-1.06869l.23075-.55782-.2837-.11756-.23229.55858a1.26238,1.26238,0,0,0-1.70207.56731c-.30285.72325.24553,1.17887.79369,1.61778l-.71,1.71894a1.81969,1.81969,0,0,1-.91275-1.067l-.33656.16979a2.01035,2.01035,0,0,0,1.11414,1.21635l-.22337.54744.28072.1177.22488-.54759a1.27854,1.27854,0,0,0,1.76833-.61953C368.69,372.95247,368.13289,372.44612,367.57582,372.00661Zm-.25137-.19478c-.42627-.3352-.76148-.66364-.58357-1.09141a.89613.89613,0,0,1,1.195-.38443Zm-.5938,2.22694.682-1.63825c.43064.35281.78045.71361.57472,1.20972C367.84916,373.94319,367.46112,374.27539,366.73065,374.03877Z"/><path class="j" d="M374.27273,386.85717a1.61337,1.61337,0,0,1-1.445.09769,1.80858,1.80858,0,0,1-1.11851-1.916l2.00342.82906.10145-.25061-2.0579-.8533a2.972,2.972,0,0,1,.11469-.31534,1.77056,1.77056,0,0,1,.15293-.30871l2.05188.85043.10145-.25212-1.99905-.82981a1.798,1.798,0,0,1,2.14313-.5512,1.61705,1.61705,0,0,1,.94809,1.09141l.372-.06833a1.98069,1.98069,0,0,0-1.19061-1.34128,2.17056,2.17056,0,0,0-2.64737.71436l-.33807-.14043-.10581.25061.291.12057a2.84292,2.84292,0,0,0-.15139.31158,2.11634,2.11634,0,0,0-.10585.31458l-.291-.11906-.10443.25137.3293.13742a2.18017,2.18017,0,0,0,1.36856,2.39522,2.01068,2.01068,0,0,0,1.80048-.10943Z"/><path class="j" d="M360.37616,392.50015a.93312.93312,0,0,1-.71737-.00211c-.36306-.15368-.42778-.49611-.83494-.66379a1.08905,1.08905,0,0,0-.35131-.08158,1.12245,1.12245,0,0,0,.84231-.62978l.71.29623.09991-.233-.7365-.30585a1.42018,1.42018,0,0,0-.06758-.58357l.9981.416.09994-.23888-1.20819-.50123a1.20075,1.20075,0,0,1,.00132-.86278.97289.97289,0,0,1,1.34354-.47112,1.02242,1.02242,0,0,1,.62616.88415l.35583-.06322a1.38028,1.38028,0,0,0-.88054-1.14064,1.35473,1.35473,0,0,0-1.81391.63053,1.267,1.267,0,0,0-.04109.8548l-.4645-.19477-.09995.24038.67463.27921a1.51539,1.51539,0,0,1,.1308.6078l-1.001-.41513-.09709.2336,1.04957.43591-.00737.025a1.30606,1.30606,0,0,1-1.29342.65115l.01178.35056a1.89215,1.89215,0,0,1,.82451.053c.5071.20862.4248.51447.98048.74522a1.217,1.217,0,0,0,.91426.04034Z"/><polygon class="j" points="356.715 375.767 356.294 375.591 354.076 377.031 353.528 374.445 353.107 374.27 353.691 376.958 352.286 376.374 352.177 376.632 353.762 377.289 353.462 378.014 351.874 377.356 351.773 377.611 353.359 378.266 353.037 379.04 353.393 379.186 353.711 378.414 355.305 379.073 355.406 378.82 353.819 378.162 354.12 377.436 355.709 378.096 355.816 377.838 354.404 377.254 356.715 375.767"/><path class="l" d="M300.63137,247.58321c-14.96966,0-27.10681,9.67209-27.10681,21.599,0,5.07853,2.23582,9.58087,5.87388,13.43056a8.77484,8.77484,0,0,1,2.19743,6.06353,9.46824,9.46824,0,0,1-2.78834,6.71678,13.94158,13.94158,0,0,0,9.89829-6.8095,32.70607,32.70607,0,0,0,11.92555,2.2012c14.974,0,27.10959-9.67058,27.10959-21.60257C327.741,257.2553,315.60532,247.58321,300.63137,247.58321Z"/><g class="t"><path class="j" d="M277.71969,271.22457a1.15,1.15,0,0,1-1.1465-1.05243c-.01761-.38217-.02935-.69676-.02935-.99a14.57961,14.57961,0,0,1,.54819-3.95927,1.14371,1.14371,0,0,1,2.20044.62481,12.23238,12.23238,0,0,0-.46886,3.33446c0,.23963.01038.50123.03672.81732a1.14085,1.14085,0,0,1-1.05827,1.22147A.63954.63954,0,0,1,277.71969,271.22457Z"/><path class="j" d="M279.78061,263.0643a1.17914,1.17914,0,0,1-.59678-.16377,1.13884,1.13884,0,0,1-.38081-1.56781,19.612,19.612,0,0,1,4.53617-5.0704,24.85437,24.85437,0,0,1,2.82962-1.92635,1.13987,1.13987,0,1,1,1.15388,1.96609,20.59567,20.59567,0,0,0-2.55176,1.75581,17.00051,17.00051,0,0,0-4.01134,4.46411A1.15819,1.15819,0,0,1,279.78061,263.0643Z"/></g><path class="a" d="M293.51552,269.18879a2.69731,2.69731,0,1,1-2.69731-2.69656A2.69641,2.69641,0,0,1,293.51552,269.18879Z"/><path class="a" d="M303.32868,269.18879a2.69656,2.69656,0,1,1-2.69581-2.69656A2.6961,2.6961,0,0,1,303.32868,269.18879Z"/><path class="a" d="M313.14026,269.18879a2.69724,2.69724,0,1,1-2.6958-2.69656A2.696,2.696,0,0,1,313.14026,269.18879Z"/><path class="g" d="M392.66577,199.78662c-9.16483-5.94808-19.84239,3.2294-16.92171,11.52408-2.92068-8.29468-17.001-8.7482-20.41422,1.63088-3.52772,10.73852,8.09645,23.26672,29.8512,25.14881C400.94736,222.98485,402.14685,205.93745,392.66577,199.78662Z"/><g class="t"><path class="h" d="M359.61769,217.16622a1.18719,1.18719,0,0,1-.47624.0581,1.12,1.12,0,0,1-1.01571-1.215,8.886,8.886,0,0,1,.39828-2.01741,7.62508,7.62508,0,0,1,4.80082-5.0403,8.46985,8.46985,0,0,1,.851-.24113,1.12035,1.12035,0,1,1,.50273,2.18358,6.0545,6.0545,0,0,0-.61005.17054,5.45,5.45,0,0,0-3.41751,3.62692,6.77128,6.77128,0,0,0-.29114,1.51694A1.132,1.132,0,0,1,359.61769,217.16622Z"/><path class="h" d="M361.46246,223.50083a1.11921,1.11921,0,0,1-1.29793-.43139l-.08384-.11846a12.85,12.85,0,0,1-1.30813-2.53625,1.11917,1.11917,0,1,1,2.09008-.80107,11.05632,11.05632,0,0,0,1.08781,2.10637l.06909.09694a1.11418,1.11418,0,0,1-.30131,1.55441A1.07019,1.07019,0,0,1,361.46246,223.50083Z"/></g><polygon class="k" points="385.653 165.254 386.979 187.474 450.459 152.57 385.653 165.254"/><polygon class="a" points="391.384 169.58 412.341 185.412 450.459 152.57 391.384 169.58"/><polygon class="a" points="372.888 155.607 385.653 165.254 450.459 152.57 372.888 155.607"/><polygon class="o" points="386.979 187.474 391.384 169.58 403.243 178.532 386.979 187.474"/><path class="r" d="M334.9069,127.13745l-1.26858-4.13417-3.35283-.10582.00136.00437a18.039,18.039,0,0,0-1.54779-2.47394l1.36855-3.06037-3.16621-2.94928-2.953,1.58678.01174.01535c-.4145-.26521-.8408-.51372-1.27445-.746q-.657-.34613-1.33613-.63866l.02495.00512-.3483-3.33672-4.21575-.97085-1.7668,2.85084a18.23737,18.23737,0,0,0-2.91493.10657l.00452-.00136-1.96537-2.71567-4.13929,1.26843-.103,3.35147.003-.00151a18.02012,18.02012,0,0,0-2.4753,1.54855l-3.059-1.37063-2.95,3.16843,1.58888,2.95591.01325-.01686c-.26747.416-.51583.84306-.74522,1.27731-.23376.43741-.44539.88054-.63941,1.33481l.00437-.02138-3.33672.34544-.96709,4.21651,2.84858,1.76454a17.81392,17.81392,0,0,0,.10732,2.91421l-.00286-.00226-2.71492,1.96669,1.26843,4.13568,3.35147.10581-.00151-.00361a18.21821,18.21821,0,0,0,1.54494,2.47168l-1.36849,3.06323,3.16915,2.94792,2.95606-1.58527-.01777-.0155c.41758.26687.84231.51372,1.27882.74537q.65273.34725,1.33183.6364l.32479,3.33235,4.21725.97085,1.7668-2.84949a17.63289,17.63289,0,0,0,2.91481-.10807l-.00132.00151,1.96229,2.71717,4.13929-1.26933.10435-3.35132h-.00151a17.76939,17.76939,0,0,0,2.4724-1.54779l3.06036,1.37214,2.94718-3.16994-1.58452-2.9538-.01912.01475c.26748-.41453.51884-.84155.74959-1.2752q.34408-.65364.63655-1.33315v.01836l3.3337-.34258.96875-4.21711-2.8531-1.76906a17.59355,17.59355,0,0,0-.103-2.912l.00151.00226Zm-16.0207,19.10816a15.73055,15.73055,0,1,1,10.42619-19.6535A15.72669,15.72669,0,0,1,318.8862,146.24561Z"/><path class="a" d="M328.13051,126.95366a14.49513,14.49513,0,1,1-18.11082-9.60525A14.49338,14.49338,0,0,1,328.13051,126.95366Z"/><path class="u" d="M314.58239,143.78491a.99385.99385,0,0,0,.23361-.12929c-.1278-.053-.35568.00737-.50993-.03161.0102.00075-.4969-.12569-.3381.05945.03808.0441.10431-.02709.15-.01385-.028.09408-.05738.07632.0102.09408,0,0-.55421-.11109-.08384-.27425-.4204-.19477-.04109-.21238-.20425-.36742-.10883-.10656.20425-.336-.01912-.38653-.10581-.025-.20139.01385-.31308-.02213-.1603-.05223-.0882-.25874.04113-.27921.01035-.00452-.01614-.322-.01027-.377-.03974-.00452-.37781-.23075-.33656-.31384.04846-.09783.44975.07647.46736-.14916.00891-.08233-.19252-.23376-.20576-.3191.13818-.0566,1.095-.31158.80106-.69661-.09994-.13306-.5673-.23526-.56294-.37268.141-.02348.43214.10882.55557-.01686.10446-.1007.23812.00211.32346-.17792.01611-.03386.15869-.32271.08234-.34619-.06472.01686-.08535.06548-.06909.144-.10732-.08008.00135-.191.047-.28509.02062.01686.04561.03372.06623.04922.0426-.14254.30721-.84742.31444-.86353.14555-.32783-.14541-.61969.01038-.8974a2.18239,2.18239,0,0,1,.54819-.62179c.06909-.05585.30134-.28734.36607-.2881.50559.00076.28072-.53735.49837-.879.22337-.34108-.39256-1.55667-.17641-1.72932a5.66662,5.66662,0,0,0,.49972-.9841.79366.79366,0,0,0-.08971-.80332c-.24094-.37931-.28809-.10807-.64377-.194-.28523-.0721-.55271-.30134-.86729-.25077a3.48457,3.48457,0,0,1-.53495.14044c-.08094,0-.31759-.0581-.3617.06547.01039-.02137-.141.1132-.12493.11455-.02649-.00587-.07345-.22563-.1469-.26236a1.689,1.689,0,0,0-.57481-.04485c-.27924.01249-.24685.33807-.42781-.00662-.22924.00737-.51733-.17566-.49671-.24761.01024-.03236-.569-.66514-.59681-.5813-.08083-.24776-.94662-.31971-1.10391-.14194-.13968.18378-.5351.039-.68065-.04486-.16166-.09332-.20272-.23662-.43214-.25859-.09844-.00964-.2455.05434-.25573-.10582-.01325-.16978-.43651-.07435-.52472-.2169a.38616.38616,0,0,0,.15429-.08308c-.14556.10581-.37781.04862-.49687.22638-.17039.26386-.39677.02213-.63354.15217-.3042.15955-.12342-.025-.36455-.0867.10145.0271-.438-.09482-.32919-.1183-.09995.01911.06171.155-.03236.22412-.14992.11319-.28072.19628-.11165.36381.29694.31082-.32486.31232-.13535-.01912.03823-.0581-.09543-.54172-.03673-.53946a2.32182,2.32182,0,0,0-.52908.58356c-.247-.21614-.244.799-.3352.83569a.63555.63555,0,0,0-.57469-.25137c-.18228-.011-.22638.42326-.50123.2756-.491-.26311-.516-.92615-.45709-1.41624.02043-.22563-.7704-.04937-.84084.06021-.14119.21163-.07059-.32557-.06472-.31233-.0382-.197-.03236-.336.05148-.35869a4.09918,4.09918,0,0,0,.09847-.78345c-.19992-.233-.538.39466-.54973.52772-.01171.13366-.0867.22638-.09995.3468-.01174.12056-.144.01776-.20726.08534-.172.18228-.49536.21314-.53946-.10506-.06623-.38367-.42778-1.06508-.09408-1.44424.10281-.1162.01174-.48949.11756-.66153.01324-.022.35567-.3924.30134-.427.08083.04636.36741-.18589.43515-.1138a.31745.31745,0,0,0,.32636.0146c-.00452.00813-.0178-.17264-.0178-.17415-.00873-.0015-.141.02213-.1454-.02137-.003-.06021.39677-.14254.41156-.1454.18664-.04335.3719.06909.48208-.06774.16617-.20937.32933.78361.441.84382.06322.03748.06457.16165.15278.12568.11623-.05148-.22036-1.28619.01776-1.6375a5.07261,5.07261,0,0,1,.58356-.71437c.06894-.06758.24986-.233.26751-.32632-.01915-.03523-.07349-.07135-.1045-.01912-.03522-.06758.1045-.06247.1045-.14631-.00151-.0882-.09712-.08444-.09561-.11529-.00151.008.02938-.18454.00737-.15368.00587.00225.00738.01038.01174.0155.13381-.01912-.06472-.11033-.07646-.12945.19116.03537.04259-.21238.19989-.27485-.1013.0846-.04109.20877,0,.28223.08534.16316.11319-.30059.09994-.27786a3.38292,3.38292,0,0,0,.46752-.48347c-.0426-.00452-.07346.03959-.13081.01912a4.71035,4.71035,0,0,0,.48949-.2875.37085.37085,0,0,1,.166-.47323,6.85272,6.85272,0,0,0,.83493-.61668c-.01325.11545.03522.01626.12644.028-.17205-.219-.47625.65626-.27335.43365.1734-.1868.84953-.51388.88476-.749-.00587-.01174-.09543-.13456-.09543-.13456-.17051.05373-.12057.275-.33521.33881-.39391.11621-.23225-.19537-.34544-.28a.177.177,0,0,1-.19553-.00286c.03823-.01912.48949-.28087.21464-.26025-.44237.03974-.57615.58507-.92163.67839.20727-.23376.45126-.67177.74974-.80708.31444-.14691.82018-.12554,1.04942-.4189.19854-.25724.4204-.18077.47489-.51658.019-.09272-.24113-.12057-.30736-.1162.01626-.03673.07646-.025.08233-.07933-.44087-.05434-.57766-.20215-.757-.63579-.15579.20576-.7246.71737-.5232.10732-.1442-.01536-.6498-.22849-.73364.05148a1.09044,1.09044,0,0,1-.20124.42476c-.22789.2014-.00151.10582-.03387.31022-.06021.33656-.43063.40415-.52471.71362-.05731.191-.05731.31383-.19989.441-.12644.10943-.23523-.04561-.2044-.20516.06758.04124.11755.03612.147-.01836-.00737-.06683-.0882-.00873-.12493-.025a1.70165,1.70165,0,0,1,.11169-.30646c-.0295-.00662-.41751.04922-.43365-.05283-.03823-.20952-.25874-.02062-.32482-.06849a1.3845,1.3845,0,0,1,.41588-.74221c.11624-.10882.74673-.721.91441-.66891.00873.09272-.09121.103-.12493.16256a.98162.98162,0,0,0,.52321-.1743c-.03086-.01249-.22052-.183-.169-.25212a1.53167,1.53167,0,0,0,.22924-.07044c.11184-.067.23813-.12207.27049-.26537.02649-.12568.38081-.388.48949-.36305.60569.13517-.51583.81868-.53947.78932.053.07722.3381-.16752.48949.03237.03538.05.4469.05509.46887-.00889.01193-.0316-.15714-.12929-.1734-.16165.45126.06909.39692-.022.25288-.26311-.13968-.233.23225-.05509.25287-.05283.07345.0146.29532-.21976.31594-.28674-.11756-.04411-.28373.00888-.391-.05585-.10434-.05223.172-.15729.04859-.21087-.14706-.06247-.32783.022-.322-.19041a.24748.24748,0,0,0-.18514.08534c.02784.03011.06021-.00812.07932.00512a.38907.38907,0,0,1-.197.11018c.01178-.04109.078-.06171.06036-.12568-.21028.03823-.28072.19251-.441.29983.028-.08594.103-.13592.14992-.20862a1.09854,1.09854,0,0,0-.463.38428.32324.32324,0,0,1,.08387.053,1.99411,1.99411,0,0,1-.44253.41c-.0059-.12493.12794-.13442.144-.23511a.47841.47841,0,0,0-.17054.09919,1.39923,1.39923,0,0,0,.25588-.38955c-.32783.06172-.3337.50936-.64979.54458.04124-.09257.17641-.09467.18378-.22111-.10581.04771-.4365.46-.54834.3322a5.85307,5.85307,0,0,0,.71151-.68276c-.05434.00948-.09257.08083-.16166.033.02634-.05358.0882-.0742.116-.13441-.25137.07421-.90839.60855-.79369.7672a.312.312,0,0,1-.30586.14781c.02213-.0867.18815-.13968.02062-.2029-.21163.16391-.41739.3337-.62176.5086a14.11728,14.11728,0,0,0-1.31554,1.31344,12.63258,12.63258,0,0,0-1.64341,2.48116,10.72663,10.72663,0,0,0-1.03181,2.85686,1.84379,1.84379,0,0,1-.02209.76509c-.01765.20787.05144.46451.01171.66364a4.29342,4.29342,0,0,0,.1618,1.2442c.08956-.11906-.25287-2.07762-.02649-2.06964a4.42553,4.42553,0,0,1,.09995.92976c-.05.44975.32331.86428.33807,1.31042a2.79509,2.79509,0,0,0,.01761.31458c-.144.20366.16466.34981.20877.51012a2.45711,2.45711,0,0,0,.757.39978c.244.05945.21747-.17054.4145-.18815.17927-.01551.32046.27259.4484.37479.1749.14254.62465-.01611.7246.04335.07195.04862.13818.40791.35872.39391-.00891-.022-.05-.14616-.025-.17114.05148-.0581.25137.13306.22488.1889a.18224.18224,0,0,1-.19986-.01776c.0087.03161.11451.494.22183.36682-.00436-.02936-.00587-.06021-.01324-.08971.197.02287.26175.28147.39541.27861.18379-.00512.37781.169.52339.1904.13077.02273-.03977-.42416.169-.51387.17205-.06909.40866.35718.50274.44915.14107.13156.04561.58281.2029.671.15865.08971-.17054.524-.15007.65927.01475.10206-.17039.2586-.15127.29322a.84794.84794,0,0,1,.02348.38066c-.01912.3176.0426.32557.266.40053.00737.00226-.1293.79971.12357.91215a3.28872,3.28872,0,0,1,1.23171,1.04732,2.10608,2.10608,0,0,0,1.40389.84366,1.3156,1.3156,0,0,1,1.07742.90041,2.92179,2.92179,0,0,0,.39677.93638c.15007.17039.078.54894.26311.69073.11469.0861.028.18093.10882.272a1.32448,1.32448,0,0,1,.29848.377c.06021.21675.144.474.22488.68652.02638.0712-.0015.2175.04546.25122a3.946,3.946,0,0,1,.64678.8849c.01626.05148.219-.08158-.0441-.22487.19857-.20937.3235.37554.34394.37268-.244-.00587-.08366.011.01911.28509.06186.161-.01761.09859.12644.0867.22939-.01611.05885.19191.17641.28448a6.29749,6.29749,0,0,0,.76735.44765c.36892.20651.82605.0161,1.1745-.01551C314.63086,143.77754,314.51767,143.79,314.58239,143.78491Zm-6.0268-22.86452a.57136.57136,0,0,1-.2116.183C308.37782,120.99233,308.47476,120.977,308.55559,120.92039Zm-.73785.16015a.1324.1324,0,0,1,.144.00662c.00891.02138-.28373.12644-.30718.2154-.00289-.14119.11165-.155.16313-.222C307.85748,121.10929,307.76626,121.14752,307.81774,121.08054Zm-.57032.735c.06758-.00362-.094.01324,0,0C307.25179,121.81553,307.22981,121.81929,307.24742,121.81553Zm-.63354-.63715c.01912-.039.0426-.04049.0721-.00377-.02062.03974-.0441.04049-.0721.00377C306.61388,121.16077,306.61975,121.19825,306.61388,121.17838Zm-.03085,1.306c-.11169.02635.12056-.03236,0,0C306.56978,122.48729,306.59913,122.48218,306.583,122.48443Zm-.02062-.49535c-.27636.47985-.0867.03085-.16452.177a.01036.01036,0,0,1-.00151.014c-.04259-.02573.15579-.18589.166-.191C306.52421,122.05154,306.49783,122.02068,306.56241,121.98908Zm-.27636-.38443c-.0441.10431-.0441.10431-.14841.11394C306.18024,121.66937,306.25234,121.662,306.28605,121.60465Zm1.30685-1.88737-.08975.0286c.09125-.14329.10145-.03236.08975-.0286C307.56938,119.72466,307.609,119.71217,307.5929,119.71728Zm.22333-.27048c-.02935.06171-.09991.05-.1454.09106C307.69582,119.41369,307.70455,119.40781,307.81623,119.4468Zm-1.52566.60554a.16925.16925,0,0,1,.10431-.07631c.05434.04184-.21163.15789-.10431.07631C306.2993,120.01787,306.27735,120.062,306.29057,120.05234Zm-.09272-.05735c.05.00662.053.02725.00737.06548-.04545-.01024-.04545-.03236-.00737-.06548C306.21263,119.98987,306.17738,120.00387,306.19785,119.995Zm-.96122,4.06809c0-.00436-.53209.42853-.5307.26161-.00139.053.1529-.23511.11316-.19989a3.95246,3.95246,0,0,1,.56309-.22127.50106.50106,0,0,1-.14555.15955C305.11606,124.15415,305.28811,124.02335,305.23663,124.06308Zm.3909-.4505c.519-.10371-.23662.29246-.34981.22924a.50834.50834,0,0,1,.34981-.22924C305.67028,123.6037,305.485,123.64043,305.62753,123.61258Zm-1.03919-3.09423a1.41752,1.41752,0,0,1,.39391-.32783,1.23815,1.23815,0,0,1-.39541.33219Zm.85841,2.70243c-.01324.0301-.03522.03462-.06457.01836.02935-.01836.05434-.03823.06457-.01836C305.46437,123.23839,305.43652,123.20091,305.44675,123.22078Zm-.05584.34469c-.00873.00436-.05.00587,0,0C305.39392,123.56471,305.37481,123.567,305.39091,123.56547Zm-.22337-.20938c.20727.02936.18951.34394-.03236.17114a.65085.65085,0,0,1-.24249.491.19887.19887,0,0,0-.006-.18664c-.04546-.01987-.09693.09106-.138.10355.044.0721.16317-.63353-.04271-.3778a9.564,9.564,0,0,1-.54235.93713c-.078-.04109.10867-.635.12643-.66078A1.08337,1.08337,0,0,1,305.16754,123.35609Zm-1.06718-2.22407c.02062-.02273.18664-.20727.22051-.18665.09106.06021-.26612.27861-.28524.28734.00587-.05659.04125-.075.06473-.10069C304.16057,121.0703,304.07688,121.15776,304.10036,121.132Zm.54536,1.62215c.00283.01023-.02938.18664-.09712.14179-.05132-.03011.06473-.20727.09712-.14179C304.65307,122.79676,304.63681,122.73866,304.64572,122.75417Zm-.82759-1.1283c.02348-.00587.28659-.30856.32046-.22849A2.66593,2.66593,0,0,1,303.81813,121.62587Zm.01611.36381a.09534.09534,0,0,1-.06906.08158C303.771,122.02655,303.79465,122.01331,303.83424,121.98968Zm.01174.85329c.03537-.047.0882-.24986.01626-.30134.03823.028-.20441.03462-.1132-.03371.03824-.02574.25423-.244.30571-.21464.09257.053-.169.58431-.23812.64166a.12867.12867,0,0,1,.02935-.092C303.896,122.77539,303.83141,122.8651,303.846,122.843Zm.37931.44915c.25423-.17565.30871-.36456.54235-.2029.08817.061.14116.27124-.02637.269.04546.00226-.4645.10506-.38955.025a.55123.55123,0,0,1-.39255.17866,1.8946,1.8946,0,0,1,.26612-.26973C304.29,123.25088,304.121,123.36783,304.22529,123.29212Zm-.54834-.39978c.0456.05795.03687.09694-.0367.13291C303.65783,122.97016,303.66671,122.92982,303.67695,122.89234Zm-2.12248,7.26724c-.1308.036.09558-.03312,0,0C301.54122,130.16319,301.5691,130.15446,301.55447,130.15958Zm1.95935.66063c-.03225.02288.09118-.05359,0,0C303.50656,130.824,303.53154,130.81148,303.51382,130.82021Zm4.3128.09272c-.06758.01023.08237-.017,0,0C307.8221,130.915,307.83987,130.91067,307.82662,130.91293Zm4.16578,11.28671c-.1147.014.03372-.10506,0,0C311.9644,142.20476,311.9924,142.19663,311.9924,142.19964Zm-1.47585-5.83113c-.05584-.02875.02785.01535,0,0C310.50767,136.36475,310.52393,136.37212,310.51655,136.36851Zm1.13914,3.566c-.06021.04486.07059-.05283,0,0C311.64109,139.94486,311.66746,139.92574,311.65569,139.93447Zm1.56254,3.74026c-.06021-.014-.06472-.03311-.01912-.05584.06172.00512.06909.02423.01912.05584C313.19761,143.67985,313.23738,143.67323,313.21823,143.67473Zm.56881.06533c-.05584.00376-.05734-.01761-.00587-.06608.05148.00587.05148.02784.00587.06608C313.76356,143.74593,313.79743,143.73133,313.787,143.74006Zm-1.49782-1.1009a.03854.03854,0,0,1-.0161.011C312.28636,142.63329,312.28922,142.62892,312.28922,142.63916Zm-5.83263-23.44222-.00436.00075.0015-.00376Zm-4.02309,3.67478-.003.00151Zm.09844-.14916h0Zm24.61086,1.81677.0015.00075a23.6022,23.6022,0,0,0-1.79329-2.68045,14.4509,14.4509,0,0,0-7.91263-4.79556c-.28075-.06547-.56294-.11906-.8467-.16752-.12193-.017-.53055-.00151-.61443-.07511.01626.04124.26751.08308.30436.10446a2.73248,2.73248,0,0,1-.60856-.06247c0-.01987.03824-.01249.025-.04049-.26025-.072-1.173-.12192-1.26854.15142a2.40225,2.40225,0,0,1,.78778.49762c.10732.22849.55707.36531.81883.37043.36155.00873.06909-.06322.18514-.183.078-.07285.22051.09693.29261.02724-.00452-.00075-.00151-.00451,0-.006-.04125-.03958-.07643-.07631-.11906-.11454-.0236.008.79522.46.82891.29622a1.55692,1.55692,0,0,0-.52757-.42416c-.197-.09844-.44987-.03673-.66154-.13081a2.224,2.224,0,0,1-.56445-.27921c.42477-.11545,1.17586.621,1.49045.15067a2.11531,2.11531,0,0,1-.20859-.07646c.08215-.00151.46884.00286.39388.18664-.34845.04335.37043.19477.38954.22789-.05885.0146-.1162-.02138-.1749-.00888.06171.10882.42627.12794.51.3182-.18664.092-.14841-.08445-.22924.11469-.025.06472-.20727.10431-.30134.14119-.22638.088-.59832-.22277-.80257-.2896a.85977.85977,0,0,0,.57619.33957c.13971.0301-.13382.14691-.1.24475.00738-.00377.0867.01023.08971.0301.00286.01174-.075-.025-.08971-.0301a1.70068,1.70068,0,0,1,.06909.388c.25573.16165-.20573.2336-.21024.24248.04994.039.12493.04486.16764.11244a1.24848,1.24848,0,0,0-.34845.14179c.197-.00135,1.33029.15368,1.22147.5652-.03808.13306-.754.19929-.87753.233-.26748.06246.05885.25362.0736.28372.10281.18379.28223.22488.34093.45939.03537.166.20576.12117.29987.24173.0823.10733.05882.12569.18965.10507.22936-.04034.22484-.07571.4571.01249.1603.06247.15292-.15428.31022-.20651.388-.13818.02649-.11395.19838-.227.21615-.13531-.19552-.41091-.20139-.48512-.0146-.1007-.07782-.19914.03823-.27635.18378-.11244-.13366-.24249-.16316-.29322-.08956-.15217.594-.02875.39541-.42341a6.56387,6.56387,0,0,1,1.18339.283,1.7604,1.7604,0,0,1,.62164.23737c.22352.1588-.19251.194-.19989.26235-.00283.07135.41453.12569.47624.10446a2.22,2.22,0,0,0-.13817-.272c-.06608-.14044-.32046-.22052-.34391-.34168a.36182.36182,0,0,1,.20724.01836c-.27485-.18379-.60268-.11033-.88491-.219-.17189-.07134-.36892-.10882-.538-.18152,0,0-.3337-.23225-.15142-.22563a7.86087,7.86087,0,0,1,.97748.24836,1.195,1.195,0,0,1,.5366.2345,3.1598,3.1598,0,0,0,.60858.32407,2.24742,2.24742,0,0,0,.46447.16016,3.56538,3.56538,0,0,0-.24986-.29472c-.11033-.09618-.444-.07044-.49687-.24986.07346-.01536.05735-.09032.20862-.13156-.08218.02213.06187-.14766.056-.12719a2.25344,2.25344,0,0,1-1.07607-.72972c.07933-.01986.15579.072.22639-.00963a.29336.29336,0,0,1-.08083-.16391c.02935.01911.37042.169.33069.23149a.2725.2725,0,0,1-.22187-.03371c.07933.12493.2175.0867.3027.16241-.00587-.039-.0411-.06171-.02348-.11319a1.76344,1.76344,0,0,1,1.01871.49837c-.10446.04335-.37344-.1162-.42491-.04049a.17367.17367,0,0,0,.05885.155.2209.2209,0,0,0-.07933.05148.17613.17613,0,0,1,.1013.09633c-.03522.025-.07044.04847-.10717.07045a2.51581,2.51581,0,0,0,1.01119.49475c.00588-.02649-.0587-.08158-.04846-.09482.02212-.05374.194.10506.23812.05.03974-.04335-.075-.078-.02935-.11831.08971-.08745.7672.60855.84667.68938.32046.3197.1147.12854-.025.23a.36093.36093,0,0,0-.00451.13742,2.24471,2.24471,0,0,1-.81717-.12057c-.388-.13155.29246.5917.075.54172-.12794-.0286-.219-.09994-.35571-.06909-.197.03974-.31323-.15142-.51162-.155-.16015-.00512-.74823.11906-.75545-.16768-.00885-.24173-.35282-.34017-.47489-.39466a3.02152,3.02152,0,0,0-.7672.31022c-.1573.10943-.41754.25212-.46752.44614-.075.35568-.58507.07345-.72174.18589-.07044.05584.08535.28223.06473.3763-.025.13893-.17927.19628-.1734.34845.01023.28.27639.4329.25724.69962-.01626.21313-.35583.4064-.31173.56369a.25491.25491,0,0,1-.02935.25137c-.13818.14766.103.31308.02935.45427-.388.74808.52923,1.08028.59395,1.74994.03959.37765.02047.46511.269.72385.05584.067.19838.62767.413.3197.13382.31233.57032.24986.73785.5351.19989.33731.607.38729.94966.52035a2.53048,2.53048,0,0,0,.41736.16241c.26461.04636.363-.18078.56159-.308a.86975.86975,0,0,1,.604-.12929c.12358.01761.74086-.78933.99072-.749.18382.03086.25137.22127.36607.33656.16165.16317.3057-.1609.47037-.138.29547.03672.66744.96347.49973,1.20671-.1278.1734.41016.57845.494.66816a2.39442,2.39442,0,0,1,.58492,1.06267c.04561.2771.2455.67252.16467.95248a5.8469,5.8469,0,0,0-.1293.85706c-.10732.77458.43067,1.45222.37916,2.24154a5.83457,5.83457,0,0,0,.12207,1.19287c.0146.26025-.17355.70037.022.92163.12643-.21464.39842-.2756.56595-.438.347-.32708.39978-.85917.59835-1.26632a2.0322,2.0322,0,0,0,.17487-.69089c.02785-.222.17054-.4064.19553-.62255.06171-.54744.10431-1.08765.166-1.6375a12.55345,12.55345,0,0,0-.30571-3.36968A11.31208,11.31208,0,0,0,327.1428,124.53933Zm-1.89324-2.432c-.097-.12132-1.16713-.97747-1.098-1.06282.07779-.09332,2.5135,2.21595,2.47376,2.70243-.43651-.56294-.91125-1.09427-1.37575-1.63961C325.24655,122.10362,325.345,122.21982,325.24956,122.10738Zm2.19608,4.7367c-.056-.06758-.03684-.14766-.04124-.24474C327.46762,126.68468,327.43375,126.76627,327.44564,126.84408Zm.05283.46451a.13862.13862,0,0,1-.01324-.12779C327.52346,127.22038,327.51021,127.26012,327.49847,127.30859Zm.83494,3.6668c-.025.01912-.05.03673-.07647.05509-.05.01536.07346-.09843.07948-.10431a.20728.20728,0,0,1-.003.04922C328.32317,131.01212,328.33777,130.9629,328.33341,130.97539Zm-.40716-1.47c-.0426-.13-.03974-.13968.06758-.26461C327.99534,129.343,327.91605,129.4136,327.92625,129.50542Zm-.05735-.72325a3.545,3.545,0,0,1-.18965-.77758c.1308.40866.28222.82033.39692,1.23622a1.25292,1.25292,0,0,1-.20727-.45864C327.84091,128.694,327.89389,128.86526,327.8689,128.78217Zm.45427.70925a2.42056,2.42056,0,0,1,.12192,1.05469c-.09844-.37916-.06322-.76133-.17054-1.13627a.09991.09991,0,0,1,.04862.08158C328.3319,129.51641,328.3173,129.46568,328.32317,129.49142Zm-.52035-2.31649c.01611.283.10281.34755-.00737.54232-.06322-.19628-.25137-.55045-.08384-.73047a.3189.3189,0,0,1,.09121.18815C327.80869,127.29022,327.797,127.08958,327.80282,127.17493ZM323.052,142.71111c.03239.03311-1.57579,1.07094-1.74618,1.165a15.24415,15.24415,0,0,1-2.13873.9716,13.32057,13.32057,0,0,1-4.4275.83629,2.437,2.437,0,0,0,.59542-.09182c-.20441-.05283-.40276.04847-.59982-.039.60117-.08234,1.1304-.29246,1.67724-.385-.07647-.0566-.58944-.025-.59982-.07571.06472-.0265.42777-.15067.43951-.16618.1308-.1874-.31157-.03161-.30269-.141.00873-.0301.14254-.02649.16753-.09708.04109-.11093-.0426-.13818-.02935-.19251a2.86778,2.86778,0,0,1,.74221-.36682c-.06608.07436-.17777.04561-.10145.16979-.07045.01249-.28358.08233-.269.18077a2.7046,2.7046,0,0,1,.33957.23677c.11756.10145.41754.09181.48513.2336.12342.236,1.42722-.191,1.61838-.27259.47038-.20651.876-.5226,1.33466-.75485.269-.13743.53209-.30721.81431-.42477a4.03709,4.03709,0,0,1,.64968-.34695c.13814.21314,1.09364-.41152,1.35088-.43951C323.05634,142.71637,323.01088,142.71637,323.052,142.71111Zm5.6371-10.09821c.01039-.1573.01039-.3191.03538-.477A3.716,3.716,0,0,1,328.68908,132.6129Zm.05-.64242c.0015-.01987.003-.04109.003-.05885C328.7523,131.933,328.74207,131.95136,328.73906,131.97048ZM308.02064,118.4773c-.078.01039-.15443.04486-.23526.05735.028-.05.25724-.12854.13531-.16241a2.74927,2.74927,0,0,1,1.29643-.6078c.43064-.07571.80257-.32994,1.22734-.391.17355-.02423.319-.06382.48362-.10205.14856-.02724.03085.16753.20139.14329.09847-.01761.36019.141.43214.06684.04124.15217-.05584.067.03236.19477.02063.02875.219.0721.21615.0867a4.16248,4.16248,0,0,1-.45574.13531c-.03827.00512.02947.06834.05445.047a3.59424,3.59424,0,0,0,.39391-.11681c-.169.28072-.52335.3623-.73062.61006-.12342.15067-.36742.21524-.52034.33069a1.319,1.319,0,0,1-.07493.65341c-.04413.15067-.71726.03958-.80411-.017-.1734-.1138-.59079-.42913-.31007-.6504.33656-.26973-.00587-.02649-.14555-.07646.053-.15654.16617-.14405.322-.16828a.21182.21182,0,0,0-.30287.01174c-.0706-.1007.09257-.2601-.1132-.32407-.09256-.0286-.47925.15579-.51146.08745-.07794-.16979.46736-.23451.51448-.40715-.41168.036-.71151.54232-1.10542.59891C307.94267,118.48769,308.09123,118.46782,308.02064,118.4773Zm8.10653.4058c.05738-.02649-.14254-.18077-.194-.20952a.18743.18743,0,0,0,.119-.05584,1.23605,1.23605,0,0,0-.55854-.16317c-.12343.14179-.44693-.22562-.48215-.27846.24851-.1162.49536.1138.76584.15579.23376.03673,1.05981.15865,1.14952.37043.04847.1028-.52922.2315-.57333.38578-.11319-.13893.09257-.20064.0721-.25061-.01776-.03387-.27349.03386-.29848.0456C316.11107,118.88973,316.208,118.84337,316.12717,118.8831Zm-7.32458,2.46943a3.916,3.916,0,0,0-.34981.69374c.022.039.51147-.14254.61141-.12041.01325.05659-.06322.05-.06021.10205.06473-.01987.22925-.20651.27335-.17852a.1913.1913,0,0,1,.01324.09618c.28373.15007.11771-.31744.12211-.34468-.16034.02438-.03977-.24987-.272-.07632a1.06633,1.06633,0,0,0-.29093.00948c-.02953-.0161.144-.29622.15425-.32783-.14841.00888-.14991.07571-.20139.14631C308.73787,121.43847,308.8202,121.33191,308.80259,121.35253Zm.64377.36305c.025.01325-.02785.02875,0,0C309.44937,121.71934,309.43914,121.7207,309.44636,121.71558Zm-.11605.02423c.01024-.02122.07936-.08233.0441-.01761-.00587.036-.07345.08083-.0441.01761C309.33332,121.73033,309.32293,121.75306,309.33031,121.73981Zm-.51884-.46.00135-.00076.00151.00437Zm-.30586.5798a.04267.04267,0,0,1,.03538,0c-.01036.00436-.06755.01836-.03538,0C308.5175,121.856,308.49839,121.8655,308.50561,121.85963Zm-3.03673,7.25549c-.13227.05585.05588-.1323.02634-.17054-.15861-.18212-.80392-.036-.90971-.18664a.09088.09088,0,0,0,.03519-.0727c-.24113-.02213-.27048.27485-.47338.3182.19552-.80844,1.43915-.333,1.94038-.14044-.20429.092-.41607.15805-.61882.25212C305.45112,129.12175,305.58346,129.06365,305.46888,129.11512Zm.63489.20516c-.11319-.014.32046-.144.37043-.18454-.12342-.10506-.06909-.20064-.25272-.19989.09543-.23225.66725-.16978.84667-.14916-.003.02709-.04121.01611-.05.04922.01912.00662.43365.17852.18228.15579-.27636-.03011-.36908.15729-.51011.30646-.197-.15218-.37781.053-.58658.02212C306.0818,129.318,306.15242,129.3254,306.10377,129.32028Zm9.58106-10.61c.31157.17279.00433.47188-.20881.36606-.10427-.0581-.11906-.27048-.32482-.27048.04561-.03086.09411-.06247.13667-.09558-.222-.26161.32046-.04411.397,0C315.75674,118.75155,315.66417,118.69706,315.68483,118.71031Zm-3.52054-.54022c-.02784-.04335.33069-.12854.38654-.15865.0882-.04485.81-.19191.60132-.00075-.169.1433-.416.32844-.64829.2175-.05885-.025-.33517-.04771-.33957-.0581C312.14668,118.14225,312.19078,118.2157,312.16429,118.17009Zm7.48338,1.51634c.08083-.02574.37781.22773.36159.2896-.05.177-.32335-.15067-.438-.17942A.909.909,0,0,0,319.64767,119.68643Zm-12.27532-.904c.18665-.25574.27049-.16828.5792-.2294a.78866.78866,0,0,1-.5792.2294C307.42533,118.71031,307.65894,118.75591,307.37235,118.78241Zm5.22709-1.83a4.99822,4.99822,0,0,1-.57182.03823,1.80452,1.80452,0,0,1,.62616-.0861c.053.00226-.06758.04862-.05434.04787C312.40678,116.95751,312.61555,116.95164,312.59944,116.95239Zm-.57182.03823c-.01761.00948-.03673.01686-.05434.025a.04162.04162,0,0,1,.05434-.025C312.01,117.0001,312.02175,116.99122,312.02762,116.99062Zm-6.38685,12.48394a.07168.07168,0,0,1,.08384.03974c.00873.10792-.34694.06171-.39692.02785A.30846.30846,0,0,1,305.64077,129.47456Zm2.22694-.69163c-.04109.45351-.6659-.10356,0,0C307.86034,128.8484,307.75753,128.76607,307.86771,128.78293Zm1.2451,1.76243h0c0-.01325.01174-.02122.025-.02709C309.13042,130.52775,309.12455,130.53287,309.11281,130.54536Zm.05584-.02935c-.01035-.00075-.00734-.17867.09408-.21825.15.03958-.03236.208-.09408.21825C309.15691,130.516,309.30818,130.491,309.16865,130.516ZM307.0093,118.8c-.08821.10882-.23662.09919-.33656.17565a.36331.36331,0,0,1,.33656-.17565C306.92109,118.90884,306.98732,118.8,307.0093,118.8Zm-1.67269,9.4016c-.09261-.15218-.15582-.13381-.09125-.31308.08974.141.11771.23376.09125.31308C305.29834,128.13915,305.36307,128.1223,305.33661,128.20162Zm-1.248,6.65131c.0161.06186-.00584.09407-.06906.08971a.41973.41973,0,0,1-.07213-.2616c.04711.05734.09558.11319.14119.17189C304.11059,134.87867,304.043,134.79423,304.08862,134.85293Zm3.6218-12.96907a.55561.55561,0,0,1,.38521.01551A.37876.37876,0,0,1,307.71042,121.88386Zm11.86967-2.23868v.00151c-.03974-.00151-.30585-.06984-.23812-.16979C319.39194,119.40932,319.56233,119.62532,319.58009,119.64518Zm2.6782.44389c-.05446-.03221-.13818.02574-.19116-.058.09257.01685.172-.02875.26615.00662-.02066.03086-.04278.06683-.075.05133C322.20383,120.05686,322.2905,120.10457,322.25829,120.08907Zm-15.03-1.273c-.03236-.02559-.06607.00813-.09994-.01385.0426-.09121.13818-.09332.21166-.13817-.00138.00948-.04263.20937-.11172.152C307.19594,118.79053,307.24592,118.83388,307.2283,118.81612Zm-.36154.20516a.53045.53045,0,0,1-.31022.24836A.65708.65708,0,0,1,306.86676,119.02128Zm1.0157,3.44178a.40974.40974,0,0,0,.1-.03748c-.08535.20877-.31459.02424-.28524.00512-.02047.01325.17641.03311.18529.03236C307.91181,122.45945,307.82511,122.47119,307.88246,122.46306Zm-.97461-3.38157a.45011.45011,0,0,1,.29848-.17927A.56354.56354,0,0,1,306.90785,119.08149Zm12.2121,1.12965c-.11605.01911.16467-.17566.09709.00226a.19059.19059,0,0,1-.09709-.00226C319.09933,120.2155,319.15382,120.203,319.12,120.21114Zm3.70128-.26973a.12036.12036,0,0,1-.11906-.13156A.16287.16287,0,0,1,322.82123,119.94141Zm-15.52384-.42989c.02062-.08233.05585-.11319.19553-.15293A.2706.2706,0,0,1,307.29739,119.51152Zm-.8554.77172a.40661.40661,0,0,1-.2029.13742C306.27735,120.33246,306.34792,120.31409,306.442,120.28324Zm8.49307-1.98084c-.00873.03537.01475.05148.03823.06623-.02348-.00437-.15729-.09483-.08956-.13667a.05564.05564,0,0,1,.05133.07044C314.92633,118.33777,314.93957,118.28268,314.93506,118.3024Zm-10.451,10.63195a.06871.06871,0,0,1-.05148.09182c-.03518-.03447,0-.17039.05148-.09182C304.49728,128.96009,304.47079,128.919,304.484,128.93435Zm9.07814,12.96109a.09572.09572,0,0,1,.0882.061c.03673.11981-.241.00151-.0882-.061C313.58565,141.88355,313.52845,141.90793,313.56217,141.89544Zm-6.96439-21.5821a.23267.23267,0,0,1-.09408.1168A.12372.12372,0,0,1,306.59778,120.31334Zm-2.41358,14.48751c.03221.14254-.07948-.12132,0,0C304.19007,134.82,304.17532,134.78836,304.1842,134.80085Zm3.4102-14.54049c.00151-.00512.01171-.00211.01758-.00211C307.60174,120.2736,307.56938,120.28324,307.5944,120.26036Zm-1.02462-1.13326c-.0161.00873-.03086.0161-.047.02348A.06148.06148,0,0,1,306.56978,119.1271Zm-.05283.02784c-.00888.00226.00286-.00361.00587-.00436Zm-.06186.03823.0015.00377Zm0,0c.00891-.025.03687-.02859.05885-.03672A.0519.0519,0,0,1,306.45509,119.19317Zm.44993-.11093.00283-.00075Zm0,.00151c.00283.02709-.02065.02859-.0354.03522C306.86962,119.09473,306.88437,119.08811,306.905,119.08375Zm-.7439,15.7597c-.03823-.01475.02363.011,0,0C306.14791,134.83833,306.18024,134.85233,306.16112,134.84345Zm10.79812-17.6552c.09107-.003.01174.01686,0,0Zm-1.97858,1.18188-.00737-.0015c.01174,0,.01764.00436.01764.01535l-.01027-.01385Zm-8.1139.74959.00286-.00075-.00286.0015Zm-.025.014c.00735-.00587.01608-.00813.025-.014-.00587.02273-.01626.02724-.025.014C306.84915,119.12785,306.84463,119.13447,306.8418,119.13372Zm13.93914.40866v-.00075l.0015.0021Zm-8.258,12.30979c-.05434-.02273.022-.03522,0,0C312.51711,131.84991,312.53186,131.83968,312.523,131.85217Zm10.53637,10.85457-.00888.00376c0-.006,0-.01038.00738-.00963Zm-.00737.00437h0Zm-18.03-19.2933c.00584-.00377.13077-.05585.10142.00737-.0426.03959-.075.03748-.10142-.00737C305.03523,123.41269,305.03222,123.44641,305.022,123.41781Zm-1.15542-.87753c-.0441-.014-.04109-.04049-.0015-.08309.05147.00151.05147.02935.0015.08309C303.849,122.54389,303.89162,122.52252,303.8666,122.54028Z"/><path class="q" d="M316.22712,116.84206a13.74018,13.74018,0,1,1-12.74856,24.03617,14.49483,14.49483,0,1,0,12.74856-24.03617Z"/><path class="e" d="M322.82123,119.94141a.12036.12036,0,0,1-.11906-.13156A.16287.16287,0,0,1,322.82123,119.94141Zm-8.23884,23.8435c-.34845.03161-.80558.222-1.1745.01551-.17792-.103-.416-.21314-.62481-.34981.35282-.03236.70717-.081,1.057-.14044-.00738.04486.02351.09483.20425.17927-.47037.16316.08234.2735.08234.2735-.06608-.017-.03673.00075-.0087-.09333-.04564-.01324-.11187.058-.15.01385-.1588-.18514.3483-.0587.3381-.05945.15425.039.38213-.02138.50993.03161a.96.96,0,0,1-.23075.12854C314.56914,143.78566,314.54416,143.78943,314.58239,143.78491Zm-1.38328-.166c-.0456.02273-.04109.04184.01912.05584C313.2682,143.64312,313.26083,143.624,313.19911,143.61889Zm.58206.05509c-.05147.04847-.05.06984.00587.06608C313.83265,143.70182,313.83265,143.67985,313.78117,143.674Zm8.55211-23.63624c-.09411-.03537-.17358.01023-.26615-.00662.053.08369.1367.02574.19116.058-.03538-.022-.01174-.00723.00286-.00136C322.2905,120.10382,322.31262,120.0686,322.33328,120.03774Zm-1.60819-.5065a.24224.24224,0,0,1,.05585.01114c-.0265-.0155-.05284-.02062-.075-.03311A.08988.08988,0,0,1,320.72509,119.53124Zm.05585.01114.0015.00135-.0015-.0021Zm-6.19569,24.24178-.00286.00075C314.5985,143.7813,314.59548,143.7813,314.58525,143.78416ZM325.27744,122.139c-.01177-.01475-.02938-.03236-.02788-.03161C325.2598,122.12063,325.26868,122.12785,325.27744,122.139Zm-2.2357,20.57663c-.27045.03823-1.20386.64678-1.34064.435a4.03709,4.03709,0,0,0-.64968.34695c-.28222.11756-.54533.28734-.81431.42477-.45863.23225-.86428.54834-1.33466.75485-.19116.08158-1.495.50861-1.61838.27259-.06759-.14179-.36757-.13215-.48513-.2336a2.7046,2.7046,0,0,0-.33957-.23677c-.0146-.09844.19853-.16828.269-.18077-.07632-.12418.03537-.09543.10145-.16979a2.86778,2.86778,0,0,0-.74221.36682c-.01325.05433.07044.08158.02935.19251-.025.07059-.1588.067-.16753.09708-.00888.10943.43349-.04636.30269.141-.01174.01551-.37479.13968-.43951.16618.01038.05072.52335.01911.59982.07571-.54684.09257-1.07607.30269-1.67724.385.19706.08745.39541-.01385.59982.039a2.437,2.437,0,0,1-.59542.09182,13.32057,13.32057,0,0,0,4.4275-.83629,15.24415,15.24415,0,0,0,2.13873-.9716c.17039-.09408,1.77857-1.13191,1.74618-1.165C323.02849,142.71637,323.03587,142.71637,323.04174,142.71562Zm4.76108-15.53708v-.00361C327.80568,127.23739,327.80418,127.20654,327.80282,127.17854Zm-1.614-4.165c.14691.22352.2881.44689.42627.67478A2.02947,2.02947,0,0,0,326.1888,123.01351Zm2.08289,5.00222a12.55345,12.55345,0,0,1,.30571,3.36968c-.06171.54985-.10431,1.09006-.166,1.6375-.025.21615-.16768.40054-.19553.62255a2.0322,2.0322,0,0,1-.17487.69089c-.19857.40715-.25137.93924-.59835,1.26632-.16753.16241-.43952.22337-.56595.438-.19553-.22126-.00738-.66138-.022-.92163a5.83457,5.83457,0,0,1-.12207-1.19287c.05151-.78932-.48648-1.467-.37916-2.24154a5.8469,5.8469,0,0,1,.1293-.85706c.08083-.28-.11906-.67538-.16467-.95248a2.39442,2.39442,0,0,0-.58492-1.06267c-.08384-.08971-.6218-.49476-.494-.66816.10581-.15353-.00286-.57694-.1719-.88054a14.0495,14.0495,0,0,0-.37193-1.52943,13.67652,13.67652,0,0,0-2.562-4.74407.28669.28669,0,0,0,.09408.00511c.13667-.03085.22777.04049.35571.06909.21747.05-.463-.67327-.075-.54172a2.24471,2.24471,0,0,0,.81717.12057.36093.36093,0,0,1,.00451-.13742c.13969-.10146.34545.0897.025-.23-.07947-.08083-.757-.77683-.84667-.68938-.04561.04034.06909.075.02935.11831-.0441.05509-.216-.10371-.23812-.05-.01024.01324.05434.06833.04846.09482a2.51581,2.51581,0,0,1-1.01119-.49475c.03673-.022.07195-.04546.10717-.07045a.17613.17613,0,0,0-.1013-.09633.2209.2209,0,0,1,.07933-.05148.17367.17367,0,0,1-.05885-.155c.05147-.07571.32045.08384.42491.04049a1.76344,1.76344,0,0,0-1.01871-.49837c-.01762.05148.01761.0742.02348.11319-.0852-.07571-.22337-.03748-.3027-.16241a.2725.2725,0,0,0,.22187.03371c.03973-.06246-.30134-.21238-.33069-.23149a.29336.29336,0,0,0,.08083.16391c-.0706.08158-.14706-.01023-.22639.00963a2.25344,2.25344,0,0,0,1.07607.72972c.00587-.02047-.13818.14932-.056.12719-.15127.04124-.13516.1162-.20862.13156.05284.17942.38654.15368.49687.24986a3.56538,3.56538,0,0,1,.24986.29472,2.24742,2.24742,0,0,1-.46447-.16016,3.1598,3.1598,0,0,1-.60858-.32407,1.46288,1.46288,0,0,0-.38067-.19853,13.85982,13.85982,0,0,0-3.19417-1.9837c-.02348-.06909-.13968-.09769-.247-.10657-.18665-.08082-.37781-.15654-.56882-.22773.11018.00512.20727.00737.26161.014.28376.04846.56595.102.8467.16752a14.325,14.325,0,0,1,1.72718.499,14.53461,14.53461,0,0,1,6.18545,4.29658,11.83157,11.83157,0,0,1,.83779,1.15388,11.54649,11.54649,0,0,0-2.03725-1.96895c-.06912.08535,1.001.9415,1.098,1.06282.05584.06533.0441.05284.02788.03161.45574.53209.91874,1.05454,1.34787,1.608a.17294.17294,0,0,0-.01024-.0587c.1734.28358.34831.56806.52923.85179l-.0015-.00075A11.31208,11.31208,0,0,1,328.27169,128.01573Zm-.826-1.17165c-.01189-.07781.022-.1594-.04124-.24474C327.4088,126.69642,327.38965,126.7765,327.44564,126.84408Zm.05283.46451c.01174-.04847.025-.08821-.01324-.12779A.13862.13862,0,0,0,327.49847,127.30859Zm.83795,3.61758c-.006.00588-.12945.11967-.07948.10431.02649-.01836.05148-.036.07647-.05509-.01024.03673.00436-.01249,0,0A.20728.20728,0,0,0,328.33642,130.92617Zm-.34259-1.68536c-.10732.12493-.11018.13456-.06758.26461C327.91605,129.4136,327.99534,129.343,327.99383,129.24081Zm-.12493-.45864a1.25292,1.25292,0,0,0,.20727.45864c-.1147-.41589-.26612-.82756-.39692-1.23622a3.545,3.545,0,0,0,.18965.77758C327.84091,128.694,327.89389,128.86526,327.8689,128.78217Zm.45427.70925a.09991.09991,0,0,0-.04862-.08158c.10732.37494.0721.75711.17054,1.13627a2.42056,2.42056,0,0,0-.12192-1.05469C328.3319,129.51641,328.3173,129.46568,328.32317,129.49142Zm-.52035-2.31649a.3189.3189,0,0,0-.09121-.18815c-.16753.18.02062.53419.08384.73047.11018-.19477.02348-.25935.00737-.53871C327.80132,127.1543,327.79831,127.13519,327.80282,127.17493Zm-4.74347,15.53181-.0015-.00587c-.00738-.00075-.00738.00361-.00738.00963Zm5.68272-10.79511c0,.01776-.00151.039-.003.05885C328.74207,131.95136,328.7523,131.933,328.74207,131.91163Zm-.01761.22427c-.025.1579-.025.3197-.03538.477A3.716,3.716,0,0,0,328.72446,132.1359Z"/></g></svg>