<?xml version='1.0' encoding='utf-8'?>
<svg xmlns:xlink="http://www.w3.org/1999/xlink" xmlns="http://www.w3.org/2000/svg" version="1.1" id="Layer_1" x="0px" y="0px" viewBox="0 0 500 500" style="enable-background:new 0 0 500 500;"> <style type="text/css"> .st0{fill:#2648C6;} .st1{fill:#FEA511;} .st2{fill:#15ACC3;} .st3{fill:#FCB262;} .st4{fill:#FFFFFF;} .st5{fill:#D49C62;} .st6{clip-path:url(#SVGID_2_);} .st7{clip-path:url(#SVGID_4_);} .st8{opacity:0.3;fill:#FFFFFF;} </style> <rect class="st0" width="500" height="500"/> <g> <path class="st1" d="M222.1,214.6C222.1,214.7,222.1,214.7,222.1,214.6c-2.6,1-4.8,2.6-6.5,4.6c-0.4,0.8-0.9,1.6-1.5,2.3 c-0.2,0.3-0.4,0.5-0.6,0.8c-2.3,2.8-5.3,5.2-8.9,6.6c-12.3,4.8-26.3-2.6-28.8-16.3c-1.5-8.4,2.3-17.1,9.6-21.6 c6.3-3.9,13.4-4.2,19.4-1.8c0.1,0,0.1,0,0.2,0.1c0.4,0.2,0.9,0.4,1.3,0.6c3.6,1.4,7.7,1.5,11.6,0c3.7-1.4-8.3-24.7-15-37 c-2.4-4.4-7.6-6.3-12.2-4.5l-92.7,35.9c-5.1,2-7.6,7.7-5.6,12.8l38.5,99.5c2,5.1,7.7,7.6,12.8,5.6l95.1-36.8 c5.1-2,7.6-7.7,5.6-12.8l-12.9-33.5C230.1,215.3,225.9,213.2,222.1,214.6z"/> <path class="st2" d="M291.4,140.8c-2.9-0.6-5.6,1.4-5.8,4.3c-0.9,12.7-3.6,43.2-7.8,42.3c-4.1-0.9-7.5-3.2-9.7-6.3 c-0.2-0.4-0.5-0.8-0.8-1.2c0-0.1-0.1-0.1-0.1-0.2c-4-5.7-10.7-9.4-18.8-9c-7.5,0.4-14.3,4.8-17.7,11.5c-6.6,13.2,1.2,28,14.6,30.8 c3.8,0.8,7.6,0.5,11.1-0.6c0.3-0.1,0.6-0.2,0.9-0.3c0.9-0.3,1.7-0.7,2.5-1.1c2.5-0.7,5.1-0.9,7.8-0.3c0,0,0.1,0,0.1,0 c3.9,0.8,6.3,4.9,5.5,8.8l-7.9,37.8c-0.8,3.9,1.7,7.7,5.5,8.5l98.1,20.6c0,0,0.1,0,0.1-0.1L393.4,170c0.9-4.1-1.8-8.2-5.9-9 L291.4,140.8z"/> <path class="st3" d="M380.2,232.2c9.4,8.9,15.3,20.5,15.3,20.5l1.8-0.2c0,0-1.2,2.9-5.5-6c-1.1-2.3-3.9-7.2-4.6-9 c-0.6-1.5-0.5-3.3,0.3-4.7c0.8-1.4,2.3-2.4,3.9-2.7l3.7-0.5c2.6-0.4,7,1.8,10.2,7.5c5.8,10.2,9.3,15.8,9.3,15.8l-2-5.4l-2-2.9 c-0.2-1.5,0.1-3,1.1-4.2c0.9-1.2,2.3-1.9,3.7-2.1l3.5-0.4c2.7-0.3,4.6,1.7,5.8,4c5.9,10.9,6,12.5,6,12.5s-0.1,0.2-0.5-4.4 c-0.1-1.5,0.1-2.6,1.1-3.7c1-1.1,2.7-2.2,4.2-2.2l0.5,0c2.8-0.1,5.7,2.2,6.9,4.8c1.6,3.6,3.4,11.5,3.4,11.5l0,0l2.3,51.9l2.6,6.6 l-47.6,18.8l-4.6-6.1l-45.5-31.1c0,0-13.3-8.1-18.3-22.5c-3.2-9.3-7.7-9.3-8-12.3c0.7-1.8,4.5-4,6.2-4.6 c14.6-5.6,18.8,11.9,26.2,17.7c3.1,2.4,7.3,5.3,12.2,3.7c3.3-1.1,20.8-2.8,3.4-26.6L380.2,232.2z"/> <polygon class="st4" points="456.1,311 459.7,321.1 404.1,343.4 398.5,333.8 "/> <path class="st5" d="M99,213.8c-8,9.9-12.7,15.8-12.7,15.8l-1.8,0.1c0,0,1.6,2.6,4.6-6.6c0.8-2.4,8.1-4.5,8.6-6.3 c0.4-1.6,0.1-3.3-0.9-4.5c-1-1.3-2.5-2-4.2-2h-3.7c-2.6,0-11,2.9-13.4,9c-4.4,10.7-7.8,13.4-7.8,13.4l1.3-5.5l3.3-1.6 c0-1.5-0.5-2.9-1.6-3.9c-1-1-2.5-1.6-3.9-1.5l-3.5,0.1c-2.7,0.1-4.2,2.2-5.2,4.7c-4.3,11.4-5.8,11.4-5.8,11.4s0.1,0.2-0.1-4.3 c-0.1-1.5-4.1-22.4-8-42.3c-1-4.9-6.1-3.5-6.1-3.5c-2.8,0.3-3.3,2.8-3.1,6.2c0.2,3.9,2.7,52,2.7,52l4.5,50.5l-5.7,15.5L83.4,331 l9.8-24.4l40.4-36.6c0,0,12-9.7,14.9-24.4c1.9-9.5,6.3-10.1,6.2-13.1c-1.7-0.6-4.9-3.2-6.6-3.6c-15-3.4-16.8,14.1-23.3,20.9 c-2.7,2.8-6.5,6.2-11.4,5.3c-3.4-0.6-20.6,4.1-6.6-21.4L99,213.8z"/> <circle class="st4" cx="417.1" cy="352.1" r="3.6"/> <path class="st4" d="M427.8,367.2c0-2-1.6-3.6-3.6-3.6c-2,0-3.6,1.6-3.6,3.6c0,2,1.6,3.6,3.6,3.6 C426.2,370.8,427.8,369.2,427.8,367.2z"/> <path class="st4" d="M84.8,326.4c0-3-2.4-5.4-5.4-5.4c-3,0-5.4,2.4-5.4,5.4c0,3,2.4,5.4,5.4,5.4C82.4,331.8,84.8,329.4,84.8,326.4z "/> <path class="st4" d="M69.9,321c0-3-2.4-5.4-5.4-5.4c-3,0-5.4,2.4-5.4,5.4c0,3,2.4,5.4,5.4,5.4C67.4,326.4,69.9,323.9,69.9,321z"/> <path class="st4" d="M54.9,315.5c0-3-2.4-5.4-5.4-5.4c-3,0-5.4,2.4-5.4,5.4c0,3,2.4,5.4,5.4,5.4C52.5,321,54.9,318.5,54.9,315.5z"/> <path class="st4" d="M39.9,310.1c0-3-2.4-5.4-5.4-5.4c-3,0-5.4,2.4-5.4,5.4c0,3,2.4,5.4,5.4,5.4C37.5,315.5,39.9,313.1,39.9,310.1z "/> <g> <defs> <path id="SVGID_1_" d="M222.1,214.6C222.1,214.7,222.1,214.7,222.1,214.6c-2.6,1-4.8,2.6-6.5,4.6c-0.4,0.8-0.9,1.6-1.5,2.3 c-0.2,0.3-0.4,0.5-0.6,0.8c-2.3,2.8-5.3,5.2-8.9,6.6c-12.3,4.8-26.3-2.6-28.8-16.3c-1.5-8.4,2.3-17.1,9.6-21.6 c6.3-3.9,13.4-4.2,19.4-1.8c0.1,0,0.1,0,0.2,0.1c0.4,0.2,0.9,0.4,1.3,0.6c3.6,1.4,7.7,1.5,11.6,0c3.7-1.4-8.3-24.7-15-37 c-2.4-4.4-7.6-6.3-12.2-4.5l-92.7,35.9c-5.1,2-7.6,7.7-5.6,12.8l38.5,99.5c2,5.1,7.7,7.6,12.8,5.6l95.1-36.8 c5.1-2,7.6-7.7,5.6-12.8l-12.9-33.5C230.1,215.3,225.9,213.2,222.1,214.6z"/> </defs> <clipPath id="SVGID_2_"> <use xlink:href="#SVGID_1_" style="overflow:visible;"/> </clipPath> <g class="st6"> <path class="st4" d="M176.2,274.3c-3.2-2.6-5.5-5.6-6-9.8c-0.1-0.6-0.9-1.1-1.5-1.5c-2-1.4-2.6-3.2-1.6-5.5 c1-2.3,2.9-2.9,5.2-2.1c7.8,2.6,15.7,5.2,23.5,7.8c2.3,0.8,3.4,2.4,2.9,4.8c-0.5,2.4-2.1,3.4-4.5,3.4c-0.7,0-1.7-0.1-2.1,0.3 c-2.9,3.1-6.6,4.1-10.7,4.3C179.6,275.4,177.9,274.9,176.2,274.3z"/> <path class="st4" d="M206.5,251.4c-11.7-3.9-23.9-7.9-36.2-12c0.3-4.6,1.2-9.3,0.9-13.8c-0.5-8.3-1.7-16.6-2.7-24.8 c-1.2-10-1.4-19.8,3.1-29.3c9.1-19.1,33.7-27.7,52.6-18.2c24,12.1,30.2,40.3,13.4,61.3c-2.3,2.8-4.8,5.5-7.3,8.1 c-4.3,4.5-8.9,8.7-12.9,13.5C213.5,240.8,210.2,246.1,206.5,251.4z"/> <path class="st4" d="M187.8,248.2c4.6,1.5,9.1,3,13.7,4.6c2.9,1,4.2,3,3.4,6c-0.7,2.9-3.2,4.4-6.3,3.4c-9.4-3-18.8-6.1-28.1-9.3 c-3.1-1.1-4.2-3.7-3-6.5c1.2-2.9,3.3-3.8,6.3-2.8C178.4,245.1,183.1,246.7,187.8,248.2z"/> </g> </g> <g> <defs> <path id="SVGID_3_" d="M291.4,140.8c-2.9-0.6-5.6,1.4-5.8,4.3c-0.9,12.7-3.6,43.2-7.8,42.3c-4.1-0.9-7.5-3.2-9.7-6.3 c-0.2-0.4-0.5-0.8-0.8-1.2c0-0.1-0.1-0.1-0.1-0.2c-4-5.7-10.7-9.4-18.8-9c-7.5,0.4-14.3,4.8-17.7,11.5 c-6.6,13.2,1.2,28,14.6,30.8c3.8,0.8,7.6,0.5,11.1-0.6c0.3-0.1,0.6-0.2,0.9-0.3c0.9-0.3,1.7-0.7,2.5-1.1c2.5-0.7,5.1-0.9,7.8-0.3 c0,0,0.1,0,0.1,0c3.9,0.8,6.3,4.9,5.5,8.8l-7.9,37.8c-0.8,3.9,1.7,7.7,5.5,8.5l98.1,20.6c0,0,0.1,0,0.1-0.1L393.4,170 c0.9-4.1-1.8-8.2-5.9-9L291.4,140.8z"/> </defs> <clipPath id="SVGID_4_"> <use xlink:href="#SVGID_3_" style="overflow:visible;"/> </clipPath> <g class="st7"> <path class="st4" d="M239.7,258.1c-2.7-1.7-4.8-3.8-5.6-7.1c-0.1-0.4-0.8-0.8-1.3-1.1c-1.6-0.9-2.3-2.3-1.7-4.1 c0.6-1.9,2-2.5,3.8-2.1c6.3,1.3,12.6,2.6,19,3.9c1.9,0.4,2.9,1.5,2.7,3.5c-0.2,1.9-1.3,2.9-3.2,3.1c-0.6,0.1-1.3,0.1-1.6,0.5 c-2,2.7-4.8,3.8-7.9,4.3C242.5,258.7,241.1,258.4,239.7,258.1z"/> <path class="st4" d="M251.5,233.6c-10.3-5-21.2-10.2-32-15.4c0.9-4.2,2.2-8.4,2.5-12.7c0.5-7.7,0.4-15.5,0.4-23.3 c0.1-9.4,1-18.5,6.4-26.7c10.7-16.5,34.4-21.6,50.7-10.6c20.7,14,23.1,40.8,5.1,58.2c-2.4,2.3-5.1,4.5-7.7,6.6 c-4.5,3.7-9.3,7-13.5,11C259.2,224.6,255.6,229.1,251.5,233.6z"/> <path class="st4" d="M246.4,236.8c3.7,0.8,7.4,1.5,11.1,2.3c2.4,0.5,3.5,1.9,3.2,4.3c-0.3,2.3-2.1,3.7-4.6,3.2 c-7.6-1.5-15.2-3-22.7-4.7c-2.5-0.5-3.6-2.5-3-4.7c0.7-2.3,2.2-3.2,4.6-2.7C238.8,235.3,242.6,236,246.4,236.8z"/> </g> </g> <g> <path class="st4" d="M304.2,208.8c-0.4,0-0.7-0.1-1.1-0.3l-8-4.9c-1-0.6-1.3-1.9-0.7-2.8c0.6-1,1.9-1.3,2.8-0.7l8,4.9 c1,0.6,1.3,1.9,0.7,2.8C305.6,208.5,304.9,208.8,304.2,208.8z"/> </g> <g> <path class="st4" d="M313.2,183.4c-0.1,0-0.2,0-0.3,0l-10.4-1.3c-1.1-0.1-1.9-1.2-1.8-2.3c0.1-1.1,1.2-1.9,2.3-1.8l10.4,1.3 c1.1,0.1,1.9,1.2,1.8,2.3C315.2,182.6,314.3,183.4,313.2,183.4z"/> </g> <g> <path class="st4" d="M297.4,153.5c-0.8,0-1.6-0.5-1.9-1.3c-0.4-1,0-2.3,1.1-2.7l8.6-3.7c1-0.5,2.3,0,2.7,1.1c0.4,1,0,2.3-1.1,2.7 l-8.6,3.7C298,153.5,297.7,153.5,297.4,153.5z"/> </g> <path class="st8" d="M327.9,265.8l5.3,6.6l2.7,4.9c0,0,4.9,0.7,6.7-1c1.8-1.8,1.1-5.7-1.1-9.3c-1.8-3.1-5.4-5.2-6-5.4 C334.8,261.5,329.1,263.5,327.9,265.8z"/> <path class="st8" d="M153.6,233.3l-4,5.9l-1.9,4.9c0,0-4.5,0.9-6.2-0.7c-1.7-1.7-2.5-5.6-0.5-9c1.7-2.8,5-4.8,5.6-5 C147.2,229.3,152.5,231.2,153.6,233.3z"/> </g> </svg>