<?xml version='1.0' encoding='utf-8'?>
<svg xmlns="http://www.w3.org/2000/svg" viewBox="0 0 500 500"><defs><style>.a{fill:none;}.b{isolation:isolate;}.c{fill:#0c3ebc;}.d{fill:#ffd55c;}.e{fill:#ffc640;}.f{fill:#ffb733;}.g{clip-path:url(#a);}.h{fill:#2a445e;}.i,.q{fill:#50667e;}.j{fill:#20364d;}.k{fill:#cee2f2;}.l{fill:#f2f9ff;}.m,.x{fill:#ff6d3b;}.n{fill:#e6eaee;}.o,.p{fill:#21d8de;}.p,.q,.x{mix-blend-mode:screen;}.r{fill:#e1effa;}.s{fill:#16c6cc;}.t{fill:#06b2b8;}.u{fill:#fff;}.v{fill:#b8d1e6;}.w{fill:#e64717;}.y{fill:#f7f7f7;}</style><clipPath id="a"><polygon class="a" points="183.77 231.597 183.77 325.684 254.418 349.392 325.065 325.684 325.065 231.597 183.77 231.597"/></clipPath></defs><title>116</title><g class="b"><rect class="c" width="500" height="500"/><polygon class="d" points="254.418 434.056 183.77 410.349 183.77 325.684 254.418 349.392 254.418 434.056"/><polygon class="e" points="239.178 377.52 168.529 353.812 183.77 325.684 254.418 349.392 239.178 377.52"/><polygon class="e" points="325.064 325.684 254.418 301.978 269.657 273.849 340.305 297.554 325.064 325.684"/><polygon class="f" points="325.064 410.349 254.418 434.056 254.418 349.392 325.064 325.684 325.064 410.349"/><polygon class="e" points="269.657 377.52 340.305 353.812 325.064 325.684 254.418 349.392 269.657 377.52"/><polygon class="e" points="183.77 325.684 254.418 301.978 239.178 273.849 168.529 297.554 183.77 325.684"/><polygon class="f" points="254.418 301.978 183.77 325.684 254.418 349.392 254.418 301.978"/><polygon class="d" points="254.418 301.978 325.064 325.684 254.418 349.392 254.418 301.978"/><g class="g"><path class="h" d="M201.132,359.5357a4.347,4.347,0,0,1-4.92665-3.64659l-7.88545-52.90076a4.34813,4.34813,0,0,1,3.64815-4.9288l24.88-3.70994a4.34983,4.34983,0,0,1,4.9251,3.64968l7.88468,52.90368a4.34586,4.34586,0,0,1-3.6466,4.92588Z"/><path class="i" d="M208.77962,353.42994a1.39838,1.39838,0,0,1,1.17464-1.58627l5.37435-.80369a1.40047,1.40047,0,0,1,1.58551,1.17834l.06256.42288a1.39643,1.39643,0,0,1-1.17325,1.58627l-5.37434.80231a1.3943,1.3943,0,0,1-1.58474-1.17541Z"/><path class="j" d="M216.623,352.697a1.0371,1.0371,0,0,1-.87227,1.17541l-5.375.80215a1.04236,1.04236,0,0,1-1.17926-.87289l-.06165-.426a1.0359,1.0359,0,0,1,.87135-1.17541l5.37511-.80508a1.0405,1.0405,0,0,1,1.177.87288Z"/><path class="j" d="M206.33849,300.66466a1.25083,1.25083,0,1,1-1.42291-1.0566A1.24744,1.24744,0,0,1,206.33849,300.66466Z"/><path class="i" d="M205.68167,300.761a.58772.58772,0,1,1-.66685-.49224A.5869.5869,0,0,1,205.68167,300.761Z"/><rect class="k" x="194.53083" y="305.26326" width="28.91338" height="43.36412" transform="translate(-45.89854 34.36691) rotate(-8.47424)"/><rect class="l" x="208.90878" y="304.19692" width="14.45651" height="43.36643" transform="translate(-45.71133 35.45198) rotate(-8.48367)"/><path class="l" d="M320.09386,317.90438l-42.6765-11.12349-10.608,40.69818a2.04863,2.04863,0,0,0,1.46513,2.49075l38.71907,10.0911a2.04064,2.04064,0,0,0,2.4923-1.46129Z"/><path class="f" d="M294.323,320.96412a.35544.35544,0,0,1-.43491.25582l-14.21466-3.70531a.35963.35963,0,0,1-.25737-.4349l1.19267-4.57219a.35957.35957,0,0,1,.43568-.25737l14.2162,3.7067a.3564.3564,0,0,1,.25444.43352Z"/><path class="d" d="M288.15248,314.10275l-7.1081-1.85258a.35957.35957,0,0,0-.43568.25737l-1.19267,4.57219a.35963.35963,0,0,0,.25737.4349l7.1058,1.85119Z"/><path class="m" d="M299.57133,317.78755H304.298a.35625.35625,0,0,1,.35625.35625v4.7229a.35732.35732,0,0,1-.35732.35732h-4.728a.35518.35518,0,0,1-.35518-.35518v-4.72366A.35763.35763,0,0,1,299.57133,317.78755Z" transform="translate(-84.33924 531.88482) rotate(-75.39769)"/><path class="k" d="M309.21459,320.30239h4.72962a.35394.35394,0,0,1,.35394.35394V325.38a.35679.35679,0,0,1-.35679.35679H309.214a.35541.35541,0,0,1-.35541-.35541v-4.723A.356.356,0,0,1,309.21459,320.30239Z" transform="matrix(0.25202, -0.96772, 0.96772, 0.25202, -79.53869, 543.13365)"/><path class="k" d="M282.16338,328.09626a.35462.35462,0,0,1-.43351.25429l-4.57142-1.19036a.35717.35717,0,0,1-.25352-.43645l1.189-4.5708a.3609.3609,0,0,1,.43568-.25721l4.57141,1.19344a.35726.35726,0,0,1,.25429.43644Z"/><path class="k" d="M291.80817,330.60952a.35473.35473,0,0,1-.43352.25444l-4.57142-1.195a.35208.35208,0,0,1-.25582-.43043l1.192-4.57219a.35817.35817,0,0,1,.43645-.25583l4.5691,1.1919a.35834.35834,0,0,1,.25583.43645Z"/><path class="k" d="M297.0573,327.43234h4.724a.35731.35731,0,0,1,.35731.35731v4.72283a.35635.35635,0,0,1-.35635.35635h-4.723a.35772.35772,0,0,1-.35772-.35772v-4.723A.35578.35578,0,0,1,297.0573,327.43234Z" transform="matrix(0.25237, -0.96763, 0.96763, 0.25237, -95.60933, 536.5569)"/><path class="k" d="M311.09851,335.63634a.3574.3574,0,0,1-.43351.25583l-4.5722-1.19345a.35439.35439,0,0,1-.25506-.43043l1.1919-4.57682a.35362.35362,0,0,1,.43429-.2512l4.57142,1.18882a.35811.35811,0,0,1,.25429.43645Z"/><path class="k" d="M279.65074,337.74028a.35559.35559,0,0,1-.43413.25428l-4.57142-1.1919a.35357.35357,0,0,1-.25521-.43336l1.19052-4.57081a.35908.35908,0,0,1,.43567-.25736l4.57219,1.192a.35881.35881,0,0,1,.25445.43336Z"/><path class="k" d="M289.29553,340.25215a.35567.35567,0,0,1-.43568.25582L284.29,339.31746a.35589.35589,0,0,1-.25582-.43337l1.1919-4.57219a.35771.35771,0,0,1,.4349-.25582l4.57142,1.1919a.35622.35622,0,0,1,.25521.4349Z"/><path class="i" d="M298.94031,342.76694a.35766.35766,0,0,1-.43567.25583l-4.56834-1.1919a.35412.35412,0,0,1-.256-.43352l1.19128-4.57512a.355.355,0,0,1,.43413-.25136l4.57143,1.18744a.36772.36772,0,0,1,.25658.438Z"/><path class="k" d="M277.13518,347.38429a.35324.35324,0,0,1-.43275.25583l-4.57065-1.19037a.35767.35767,0,0,1-.255-.438l1.18974-4.56772a.35813.35813,0,0,1,.4349-.25583l4.57142,1.19344a.35306.35306,0,0,1,.25506.43491Z"/><path class="k" d="M282.383,344.20969h4.72372a.35756.35756,0,0,1,.35756.35756v4.72416a.35543.35543,0,0,1-.35543.35543h-4.725a.35506.35506,0,0,1-.35506-.35506v-4.72788a.35421.35421,0,0,1,.35421-.35421Z" transform="translate(-122.74532 535.05112) rotate(-75.40295)"/><path class="i" d="M292.03046,346.72317H296.753a.35629.35629,0,0,1,.35629.35629v4.72415a.35617.35617,0,0,1-.35617.35617h-4.72388a.35572.35572,0,0,1-.35572-.35572v-4.724a.3569.3569,0,0,1,.3569-.3569Z" transform="translate(-118.09574 545.98661) rotate(-75.36434)"/><path class="i" d="M306.07107,354.92591a.356.356,0,0,1-.43429.25428l-4.57219-1.189a.3581.3581,0,0,1-.25351-.4349l1.19113-4.5722a.35585.35585,0,0,1,.43428-.25428l4.57143,1.1919a.35555.35555,0,0,1,.25351.43336Z"/><path class="i" d="M308.58355,345.28189a.36066.36066,0,0,1-.43336.25722l-4.57142-1.19344a.35712.35712,0,0,1-.25367-.43645l1.19129-4.57065a.35864.35864,0,0,1,.43336-.25737l4.57142,1.19206a.359.359,0,0,1,.25521.4349Z"/><path class="n" d="M324.52828,300.88442a2.04417,2.04417,0,0,0-1.46129-2.4923L284.34638,288.301a2.0453,2.0453,0,0,0-2.49307,1.4599l-4.436,17.02,42.6765,11.12349Z"/><path class="i" d="M283.03859,304.60021a1.18986,1.18986,0,0,1-.736-.55542,1.20287,1.20287,0,0,1-.12714-.915l2.56226-9.83665a1.20922,1.20922,0,0,1,1.47115-.86087l33.505,8.73352a1.20552,1.20552,0,0,1,.86318,1.47038l-2.56072,9.83357a1.20966,1.20966,0,0,1-1.47269.86395Z"/><path class="o" d="M285.9943,293.257a.35773.35773,0,0,0-.27016.03467.37331.37331,0,0,0-.164.21977l-2.563,9.83064a.35018.35018,0,0,0,.03683.26939.34354.34354,0,0,0,.21823.16552l33.50577,8.73352a.35279.35279,0,0,0,.43274-.25429l2.56382-9.83527a.35337.35337,0,0,0-.25445-.43182Z"/><path class="p" d="M285.9943,293.257a.35773.35773,0,0,0-.27016.03467.37331.37331,0,0,0-.164.21977l-2.563,9.83064a.35018.35018,0,0,0,.03683.26939.34354.34354,0,0,0,.21823.16552l16.75365,4.36753,2.74134-10.52Z"/><rect class="i" x="298.43776" y="289.88073" width="0.84984" height="44.1014" transform="translate(-78.36311 522.45655) rotate(-75.39109)"/><path class="h" d="M274.42312,298.22506a4.06756,4.06756,0,0,1-1.32135-3.26886l1.77058-27.30077a.54632.54632,0,0,0-.13161-.39422.56883.56883,0,0,0-.374-.18663l-8.39555-.54185a.55008.55008,0,0,0-.57792.50718l-1.77,27.29922a4.08456,4.08456,0,0,1-.51473,1.73376,4.0346,4.0346,0,0,1-1.21517,1.34093l-2.31029,1.61494a13.5638,13.5638,0,0,0-5.76857,10.24443l-3.33744,51.456a2.71873,2.71873,0,0,0,2.533,2.88651l21.6689,1.40273a2.70819,2.70819,0,0,0,2.88513-2.53437L280.9,311.0296a13.5582,13.5582,0,0,0-4.3962-10.90372Z"/><path class="q" d="M256.92834,310.81893a1.34261,1.34261,0,0,1-1.24615-1.42676,11.71453,11.71453,0,0,1,4.974-8.83139l2.30875-1.61031a1.33476,1.33476,0,1,1,1.53126,2.18669l-2.3086,1.61787a9.02637,9.02637,0,0,0-3.83708,6.81313A1.33862,1.33862,0,0,1,256.92834,310.81893Z"/><path class="j" d="M275.16671,273.6228a.54346.54346,0,0,1-.57577.50564l-9.75312-.632a.54245.54245,0,0,1-.50487-.57638l.28064-4.333a.54568.54568,0,0,1,.5756-.50857l9.7539.632a.55015.55015,0,0,1,.5058.581Z"/><rect class="r" x="258.47969" y="329.9677" width="28.77271" height="12.75797" transform="matrix(0.06488, -0.99789, 0.99789, 0.06488, -80.47576, 586.81532)"/><rect class="m" x="261.331" y="330.97908" width="24.96913" height="10.85703" transform="matrix(0.06476, -0.9979, 0.9979, 0.06476, -79.61905, 587.86137)"/><rect class="s" x="221.96867" y="317.13829" width="43.06549" height="40.74333"/><polygon class="o" points="265.034 317.138 265.034 330.211 257.026 330.211 257.026 319.402 265.034 317.138"/><polygon class="t" points="257.03 343.64 267.911 343.64 267.911 321.668 257.03 319.402 257.03 343.64"/><polygon class="o" points="221.989 317.138 221.989 330.211 230 330.211 230 319.402 221.989 317.138"/><polygon class="t" points="229.997 343.64 219.113 343.64 219.113 321.668 229.997 319.402 229.997 343.64"/><rect class="o" x="219.09264" y="321.66841" width="48.81833" height="59.97726"/><path class="h" d="M254.40891,328.611a1.81768,1.81768,0,1,0,1.81359-1.81806A1.81565,1.81565,0,0,0,254.40891,328.611Z"/><path class="h" d="M228.96088,328.611a1.81806,1.81806,0,1,0,1.81729-1.81806A1.81832,1.81832,0,0,0,228.96088,328.611Z"/><path class="u" d="M242.9265,351.06109h1.14844a12.83594,12.83594,0,0,0,12.82935-12.83475V328.611a.62578.62578,0,0,0-.1837-.45.64217.64217,0,0,0-.45447-.18663h-.09031a.62962.62962,0,0,0-.63217.63664v9.61534a11.48028,11.48028,0,0,1-11.4687,11.46963H242.9265a11.47526,11.47526,0,0,1-11.4673-11.46963V328.611a.6359.6359,0,0,0-.63356-.63664H230.733a.64566.64566,0,0,0-.45077.18663.62861.62861,0,0,0-.18586.45v9.61534a12.83594,12.83594,0,0,0,12.83012,12.83475Z"/></g><path class="v" d="M300.66051,223.84651c-8.40989-3.85588-11.81638-13.81444-7.75676-22.66524,1.995-4.354,6.1261-8.72751,11.04751-11.69539,5.18463-3.12447,10.13239-4.01092,13.58034-2.43065,3.44348,1.57872,6.0005,5.9071,7.01486,11.87447.9632,5.66639.34753,11.65024-1.6496,16.00421C318.838,223.78625,309.069,227.70223,300.66051,223.84651Zm16.70634-36.43606c-3.32526-1.52463-8.142-.64418-13.214,2.41247-4.78424,2.88359-8.95837,7.29936-10.89232,11.52079-3.96946,8.65384-.64866,18.38216,7.56181,22.14757,8.20908,3.764,17.75-.06627,21.7179-8.72,1.9355-4.22143,2.557-10.26709,1.62157-15.77381C323.16932,193.1596,320.69212,188.93647,317.36685,187.41045Z"/><path class="u" d="M318.75371,187.83179a1.4358,1.4358,0,1,1-.70738-1.9022A1.43948,1.43948,0,0,1,318.75371,187.83179Z"/><path class="u" d="M315.89108,187.10192a1.43375,1.43375,0,1,1-.70583-1.90236A1.43912,1.43912,0,0,1,315.89108,187.10192Z"/><path class="u" d="M312.88421,187.27345a1.43411,1.43411,0,1,1-.70583-1.90082A1.43644,1.43644,0,0,1,312.88421,187.27345Z"/><path class="u" d="M309.601,188.17808a1.43443,1.43443,0,1,1-.70429-1.90081A1.43389,1.43389,0,0,1,309.601,188.17808Z"/><path class="u" d="M306.275,189.72213a1.43481,1.43481,0,1,1-.70892-1.90081A1.44076,1.44076,0,0,1,306.275,189.72213Z"/><path class="u" d="M303.03923,191.80048a1.43474,1.43474,0,1,1-.70661-1.90081A1.43251,1.43251,0,0,1,303.03923,191.80048Z"/><path class="u" d="M300.03605,194.2974a1.43375,1.43375,0,1,1-.70444-1.89942A1.43369,1.43369,0,0,1,300.03605,194.2974Z"/><path class="u" d="M297.40829,197.11164a1.43474,1.43474,0,1,1-.70661-1.9022A1.43591,1.43591,0,0,1,297.40829,197.11164Z"/><path class="u" d="M295.29218,200.12777a1.43541,1.43541,0,1,1-.70661-1.90082A1.4357,1.4357,0,0,1,295.29218,200.12777Z"/><path class="u" d="M293.73827,203.45227a1.43474,1.43474,0,1,1-.70584-1.90529A1.438,1.438,0,0,1,293.73827,203.45227Z"/><path class="u" d="M292.85258,207.07775a1.436,1.436,0,1,1-.70583-1.90236A1.43787,1.43787,0,0,1,292.85258,207.07775Z"/><path class="u" d="M292.72991,210.65222a1.43411,1.43411,0,1,1-.70583-1.9039A1.43353,1.43353,0,0,1,292.72991,210.65222Z"/><path class="u" d="M293.32817,214.07458a1.43505,1.43505,0,1,1-.70583-1.90081A1.43245,1.43245,0,0,1,293.32817,214.07458Z"/><path class="u" d="M294.60068,217.24852a1.43341,1.43341,0,1,1-.70661-1.90221A1.43112,1.43112,0,0,1,294.60068,217.24852Z"/><path class="u" d="M296.50982,220.07339a1.4358,1.4358,0,1,1-.70815-1.90375A1.43449,1.43449,0,0,1,296.50982,220.07339Z"/><path class="u" d="M318.56184,188.327a1.43572,1.43572,0,1,0,1.90374-.70429A1.4405,1.4405,0,0,0,318.56184,188.327Z"/><path class="u" d="M320.39638,190.71846a1.43446,1.43446,0,1,0,1.90159-.70583A1.43469,1.43469,0,0,0,320.39638,190.71846Z"/><path class="u" d="M321.85166,193.79623a1.43512,1.43512,0,1,0,1.90236-.70737A1.43415,1.43415,0,0,0,321.85166,193.79623Z"/><path class="u" d="M322.85478,197.32385a1.43408,1.43408,0,1,0,1.9-.70275A1.43776,1.43776,0,0,0,322.85478,197.32385Z"/><path class="u" d="M323.38908,201.1315a1.43509,1.43509,0,1,0,1.90529-.7043A1.43486,1.43486,0,0,0,323.38908,201.1315Z"/><path class="u" d="M323.45535,205.03546a1.435,1.435,0,1,0,1.90143-.70429A1.43406,1.43406,0,0,0,323.45535,205.03546Z"/><path class="u" d="M323.03832,208.86421a1.43443,1.43443,0,1,0,1.90159-.70429A1.43373,1.43373,0,0,0,323.03832,208.86421Z"/><path class="u" d="M322.13384,212.43714a1.43544,1.43544,0,1,0,1.90313-.70444A1.43557,1.43557,0,0,0,322.13384,212.43714Z"/><path class="u" d="M320.62971,215.78276a1.434,1.434,0,1,0,1.90374-.70737A1.43413,1.43413,0,0,0,320.62971,215.78276Z"/><path class="u" d="M318.46166,218.81984a1.4344,1.4344,0,1,0,1.90236-.70737A1.437,1.437,0,0,0,318.46166,218.81984Z"/><path class="u" d="M315.83174,221.24279a1.43538,1.43538,0,1,0,1.903-.70429A1.43742,1.43742,0,0,0,315.83174,221.24279Z"/><path class="u" d="M312.84876,223.02324a1.43471,1.43471,0,1,0,1.90081-.70429A1.43674,1.43674,0,0,0,312.84876,223.02324Z"/><path class="u" d="M309.61087,224.13239a1.43438,1.43438,0,1,0,1.9022-.70738A1.43333,1.43333,0,0,0,309.61087,224.13239Z"/><path class="u" d="M306.22688,224.52969a1.4354,1.4354,0,1,0,1.9022-.70722A1.43473,1.43473,0,0,0,306.22688,224.52969Z"/><polygon class="o" points="303.817 216.961 296.808 221.219 300.986 223.135 303.817 216.961"/><polygon class="s" points="303.817 216.961 305.164 225.05 300.986 223.135 303.817 216.961"/><polygon class="t" points="298.155 229.308 305.164 225.05 300.986 223.135 298.155 229.308"/><polygon class="s" points="298.155 229.308 296.808 221.219 300.986 223.135 298.155 229.308"/><polygon class="o" points="294.269 223.509 295.808 223.893 294.513 222.977 294.896 221.437 293.977 222.73 292.441 222.349 293.733 223.264 293.352 224.802 294.269 223.509"/><polygon class="o" points="304.963 230.663 307.024 231.174 305.291 229.948 305.802 227.889 304.574 229.621 302.519 229.108 304.246 230.333 303.738 232.395 304.963 230.663"/><polygon class="o" points="306.753 220.94 307.738 221.186 306.911 220.6 307.155 219.611 306.568 220.442 305.585 220.197 306.411 220.784 306.167 221.77 306.753 220.94"/><path class="v" d="M320.73574,260.37133,346.51265,215.256l24.81293,14.17552a3.897,3.897,0,0,1,1.45081,5.31563l-21.91055,38.352a3.89622,3.89622,0,0,1-5.31639,1.44926Z"/><path class="i" d="M345.9956,216.1574l24.81525,14.17568a2.861,2.861,0,0,1,1.06322,3.89934l-21.91132,38.35351a2.8623,2.8623,0,0,1-3.89934,1.06245l-24.81294-14.1786Z"/><path class="u" d="M345.83532,218.609l.56143-.98123.982.56143a.2211.2211,0,0,1-.21976.38373l-.59671-.34166-.34245.59749a.21972.21972,0,0,1-.3002.08137A.22276.22276,0,0,1,345.83532,218.609Z"/><path class="u" d="M348.68362,219.19a.22207.22207,0,0,1,.30252-.08276l1.60646.918a.2204.2204,0,1,1-.21961.3822l-1.60661-.918A.2212.2212,0,0,1,348.68362,219.19Zm-23.45013,41.06234a.221.221,0,0,1,.30314-.0843l1.60662.918a.2214.2214,0,0,1,.0806.30407.21781.21781,0,0,1-.30037.07983l-1.60723-.91666A.221.221,0,0,1,325.23349,260.25236ZM351.899,221.02457a.22149.22149,0,0,1,.30021-.08122l1.60662.91958a.21968.21968,0,0,1-.21669.3822l-1.60969-.918A.22283.22283,0,0,1,351.899,221.02457Zm-23.44936,41.06388a.21892.21892,0,0,1,.301-.08276l1.60877.91666a.22174.22174,0,0,1-.21961.38528l-1.60739-.9182A.21931.21931,0,0,1,328.44965,262.08845Zm26.66321-39.22625a.22174.22174,0,0,1,.30036-.08276l1.60724.918a.22073.22073,0,1,1-.21823.38374l-1.60723-.918A.22094.22094,0,0,1,355.11286,222.8622Zm-23.45012,41.061a.22092.22092,0,0,1,.30174-.08276l1.60816.921a.21609.21609,0,0,1,.08123.29806.2206.2206,0,0,1-.301.08275l-1.608-.9165A.22243.22243,0,0,1,331.66274,263.92315Zm26.66335-39.22332a.22257.22257,0,0,1,.30252-.0843l1.60662.91958a.22045.22045,0,1,1-.21976.3822l-1.60585-.918A.21923.21923,0,0,1,358.32609,224.69983Zm-23.44857,41.0608a.22349.22349,0,0,1,.30251-.08415l1.60584.918a.2214.2214,0,0,1,.082.30252.21747.21747,0,0,1-.30021.07967l-1.60816-.915A.21985.21985,0,0,1,334.87752,265.76063Zm26.66257-39.22626a.22205.22205,0,0,1,.30176-.08121l1.608.918a.22092.22092,0,0,1-.219.38374l-1.60662-.91959A.22055.22055,0,0,1,361.54009,226.53437Zm-23.45028,41.0625a.22149.22149,0,0,1,.30176-.08291l1.60815.91665a.22416.22416,0,0,1,.082.30391.21983.21983,0,0,1-.301.08137l-1.60739-.91958A.21973.21973,0,0,1,338.08981,267.59687Zm26.66568-39.22641a.21913.21913,0,0,1,.301-.07967l1.60508.9165a.21969.21969,0,1,1-.21669.3822l-1.60662-.91651A.22151.22151,0,0,1,364.75549,228.37046ZM341.30613,269.433a.21923.21923,0,0,1,.30237-.0843l1.60661.918a.22193.22193,0,0,1-.22038.38528l-1.60661-.92112A.21552.21552,0,0,1,341.30613,269.433Zm26.6632-39.22487a.22012.22012,0,0,1,.30037-.0843l1.60723.91959a.22092.22092,0,1,1-.219.38374l-1.60585-.91959A.21941.21941,0,0,1,367.96933,230.20809Zm-23.45089,41.061a.22343.22343,0,0,1,.30406-.08276l1.60508.91943a.22221.22221,0,0,1,.08352.30406.22569.22569,0,0,1-.30328.07983l-1.60508-.918A.22029.22029,0,0,1,344.51844,271.26905Zm26.22245-38.80645a.20888.20888,0,0,1,.15426-.10989.21921.21921,0,0,1,.255.18062,1.75719,1.75719,0,0,1-.21144,1.16494l-.39513.69072a.22078.22078,0,0,1-.383-.21976l.39514-.68919a1.32313,1.32313,0,0,0,.15951-.87443A.19994.19994,0,0,1,370.74089,232.4626Zm-22.87083,40.0435a.19609.19609,0,0,1,.10834-.09478,1.32727,1.32727,0,0,0,.6653-.58254l.39808-.69674a.223.223,0,0,1,.30175-.07983.21893.21893,0,0,1,.082.29959l-.39961.69829a1.75468,1.75468,0,0,1-.88491.769.21833.21833,0,0,1-.28511-.12344A.20807.20807,0,0,1,347.87006,272.5061Zm2.0913-2.98283.91728-1.60292a.22006.22006,0,1,1,.38219.21822l-.91727,1.60739a.22118.22118,0,1,1-.3822-.22269Zm1.83532-3.21169.91727-1.60739a.22111.22111,0,0,1,.38374.21976l-.91649,1.60724a.22233.22233,0,0,1-.30176.08137A.21951.21951,0,0,1,351.79668,266.31158Zm1.83609-3.21478.918-1.60276a.21963.21963,0,1,1,.383.21514l-.918,1.61047a.22178.22178,0,0,1-.30175.07813A.21869.21869,0,0,1,353.63277,263.0968Zm1.83763-3.21308.91727-1.60738a.22044.22044,0,1,1,.3822.21976l-.918,1.60585a.21676.21676,0,0,1-.30021.07967A.21364.21364,0,0,1,355.4704,259.88372Zm1.83532-3.21477.918-1.60877a.22111.22111,0,1,1,.38374.21976l-.91882,1.60877a.22077.22077,0,1,1-.383-.21976Zm1.83609-3.21462.91881-1.60585a.22013.22013,0,0,1,.301-.08275.21764.21764,0,0,1,.082.29944l-.918,1.60738a.22072.22072,0,1,1-.38373-.21822Zm1.8384-3.21323.9165-1.60878a.22077.22077,0,0,1,.383.21977l-.91728,1.60723a.22074.22074,0,0,1-.30175.08137A.21649.21649,0,0,1,360.98021,250.2411Zm1.833-3.21462.92113-1.60878a.22007.22007,0,0,1,.38143.21961l-.91728,1.60893a.22178.22178,0,0,1-.38528-.21976Zm1.83763-3.21462.9196-1.60739a.22044.22044,0,1,1,.3822.21976l-.91729,1.60724a.22141.22141,0,0,1-.38451-.21961Zm1.83763-3.21478.91728-1.60584a.22077.22077,0,0,1,.383.21976l-.91867,1.60431a.21985.21985,0,1,1-.38158-.21823Zm1.83609-3.21308.91882-1.60738a.218.218,0,0,1,.29944-.08276.22055.22055,0,0,1,.08275.30252l-.91881,1.60878a.22277.22277,0,0,1-.301.07983A.22014.22014,0,0,1,368.32456,237.384Z"/><path class="u" d="M322.72085,259.068l.55989-.97984a.22407.22407,0,0,1,.30252-.0843.22122.22122,0,0,1,.082.30252l-.34089.59749.59749.34012a.22209.22209,0,0,1,.08044.30253.2177.2177,0,0,1-.29943.08275Z"/><path class="u" d="M324.18291,256.50944l.90234-1.57872a.22387.22387,0,0,1,.30174-.08584.22088.22088,0,0,1,.082.30252l-.90155,1.58027a.22107.22107,0,1,1-.38452-.21823Zm1.80373-3.159.90386-1.58026a.22233.22233,0,0,1,.301-.08122.22009.22009,0,0,1,.08352.29944l-.90232,1.5818a.22211.22211,0,0,1-.386-.21976Zm1.80527-3.159.90232-1.57872a.22145.22145,0,1,1,.38374.22115l-.90233,1.5758a.21766.21766,0,0,1-.30175.08275A.22031.22031,0,0,1,327.79191,250.19147Zm1.80449-3.15744.90233-1.57872a.22107.22107,0,1,1,.38373.21961l-.90232,1.57733a.22073.22073,0,0,1-.38374-.21822Zm1.8045-3.159.90232-1.57872a.2223.2223,0,0,1,.30252-.08276.22006.22006,0,0,1,.08122.30237l-.90232,1.58026a.22145.22145,0,0,1-.38374-.22115Zm1.80526-3.159.90217-1.58027a.22192.22192,0,0,1,.38391.2227l-.90234,1.57872a.22145.22145,0,1,1-.38374-.22115Zm1.8045-3.1576.90078-1.58011a.2214.2214,0,0,1,.38451.21961l-.90155,1.58026a.22133.22133,0,0,1-.30391.08276A.22357.22357,0,0,1,335.01066,237.55846Zm1.8045-3.16037.90155-1.5758a.22111.22111,0,0,1,.38374.21977l-.90233,1.57872a.22035.22035,0,0,1-.30252.08122A.22358.22358,0,0,1,336.81516,234.39809Zm1.803-3.15606.90233-1.58026a.22149.22149,0,0,1,.38373.2213l-.90078,1.57872a.22178.22178,0,0,1-.38528-.21976Zm1.806-3.15744.90155-1.58027a.22145.22145,0,0,1,.38451.21977l-.90232,1.57718a.22036.22036,0,1,1-.38374-.21668Zm1.80218-3.15745.90388-1.58026a.22111.22111,0,0,1,.383.22115l-.90156,1.57733a.22139.22139,0,0,1-.38528-.21822Zm1.806-3.15914.90155-1.57872a.22106.22106,0,0,1,.38451.21822l-.90386,1.57888a.21794.21794,0,0,1-.29944.08276A.22166.22166,0,0,1,344.03237,221.768Z"/><rect class="h" x="309.56113" y="236.70095" width="51.96089" height="4.41667" transform="translate(-38.34626 411.74934) rotate(-60.26134)"/><path class="h" d="M363.43259,251.10505l-7.33233-4.18845a3.24749,3.24749,0,0,0-3.22233,5.63926l7.3325,4.18845Z"/><path class="k" d="M353.84575,250.86124a1.29763,1.29763,0,1,1,1.7729-.4816A1.29705,1.29705,0,0,1,353.84575,250.86124Z"/><path class="u" d="M355.61865,250.37964a1.29968,1.29968,0,0,0-2.25681-1.28976Z"/><rect class="o" x="352.86395" y="214.84011" width="1.97293" height="6.94348" transform="translate(-11.34686 417.06077) rotate(-60.22903)"/><rect class="f" x="161.62402" y="85.5935" width="39.26931" height="48.74993" transform="translate(-19.22143 41.00835) rotate(-12.26299)"/><polygon class="k" points="187.409 86.457 197.908 134.758 205.622 129.617 195.268 81.979 187.409 86.457"/><polygon class="k" points="163.124 103.841 159.981 104.524 156.895 90.32 160.611 92.282 163.124 103.841"/><polygon class="d" points="193.782 100.641 190.641 101.324 187.409 86.457 191.127 88.422 193.782 100.641"/><polygon class="d" points="152.588 102.389 162.347 100.267 160.611 92.282 151.429 97.052 152.588 102.389"/><rect class="u" x="156.28565" y="92.16557" width="40.62513" height="50.10579" transform="translate(-20.86679 40.18165) rotate(-12.26234)"/><path class="i" d="M179.27567,129.52973a12.59914,12.59914,0,1,1-5.35184-24.62338l.16182.745a11.83452,11.83452,0,1,0,5.02744,23.129Z"/><path class="i" d="M179.27567,129.52973c-1.74655.37927-3.64736-.5884-5.35708-2.7136a22.03311,22.03311,0,0,1-3.74137-17.21569c.67038-2.65026,2.00006-4.31482,3.74661-4.69409l.16182.745c-1.4448.31608-2.572,1.78492-3.16731,4.13574a21.37074,21.37074,0,0,0,3.59774,16.55362c1.51847,1.88864,3.15221,2.75413,4.597,2.43959Z"/><polygon class="i" points="179.566 129.078 178.822 129.241 173.631 105.359 174.375 105.197 179.566 129.078"/><path class="i" d="M179.27567,129.52973l-.16258-.74945c1.44634-.31454,2.57135-1.77891,3.17254-4.12973a21.42418,21.42418,0,0,0-3.597-16.55054c-1.52386-1.89327-3.15513-2.76169-4.603-2.44868l-.16182-.745c1.74285-.37773,3.64968.58254,5.3594,2.71514a22.13316,22.13316,0,0,1,3.74137,17.21414C182.35406,127.48143,181.01838,129.15046,179.27567,129.52973Z"/><path class="i" d="M179.27567,129.52973l-.16258-.74945a11.83452,11.83452,0,0,0-5.02744-23.129l-.16182-.745a12.59914,12.59914,0,1,1,5.35184,24.62338Z"/><rect class="i" x="164.72057" y="110.86808" width="21.16149" height="0.76611" transform="translate(-19.6328 39.78046) rotate(-12.26539)"/><rect class="i" x="164.38345" y="116.83908" width="24.43183" height="0.76176" transform="translate(-20.86873 40.18615) rotate(-12.26356)"/><rect class="i" x="167.3152" y="122.80421" width="21.16103" height="0.76394" transform="translate(-22.10255 40.58827) rotate(-12.26087)"/><path class="h" d="M164.04356,99.14226a1.40473,1.40473,0,1,0-1.07154,1.67057A1.40521,1.40521,0,0,0,164.04356,99.14226Z"/><path class="h" d="M183.26394,94.966a1.40495,1.40495,0,1,0-1.07463,1.669A1.40391,1.40391,0,0,0,183.26394,94.966Z"/><path class="k" d="M169.03109,80.30115l-.86765.18972a9.92075,9.92075,0,0,0-7.58508,11.79757l1.5795,7.26468a.48419.48419,0,0,0,.21282.30853.50567.50567,0,0,0,.37249.06627l.06858-.0151a.50722.50722,0,0,0,.30992-.21515.49347.49347,0,0,0,.06472-.36878l-1.57871-7.26468a8.86853,8.86853,0,0,1,6.7786-10.54542l.8675-.18817a8.86654,8.86654,0,0,1,10.544,6.78l1.57949,7.26622a.48882.48882,0,0,0,.58408.3731l.06766-.0134a.51769.51769,0,0,0,.31084-.2153.49629.49629,0,0,0,.06534-.37017l-1.57872-7.26314a9.92167,9.92167,0,0,0-11.79541-7.58678Z"/><polygon class="j" points="216.579 237.545 216.439 244.927 209.116 245.835 184.383 218.522 186.841 215.793 216.579 237.545"/><polygon class="k" points="204.212 240.421 205.153 241.461 206.496 230.172 205.521 229.454 204.212 240.421"/><polygon class="k" points="199.793 235.542 200.732 236.576 201.891 226.802 200.917 226.087 199.793 235.542"/><polygon class="k" points="213.644 245.27 214.722 245.141 215.702 236.905 214.722 236.189 213.644 245.27"/><polygon class="k" points="208.638 245.305 209.116 245.835 209.646 245.768 211.098 233.537 210.119 232.824 208.638 245.305"/><polygon class="k" points="195.37 230.657 196.309 231.692 197.291 223.437 196.312 222.721 195.37 230.657"/><polygon class="k" points="186.524 220.888 187.463 221.925 188.081 216.701 187.105 215.986 186.524 220.888"/><polygon class="k" points="190.945 225.774 191.884 226.81 192.688 220.067 191.709 219.351 190.945 225.774"/><polygon class="h" points="212.582 260.289 202.779 273.967 187.546 266.828 183.893 218.489 192.138 216.338 212.582 260.289"/><polygon class="u" points="187.105 261.012 187.236 262.745 204.305 242.496 203.739 241.277 187.105 261.012"/><polygon class="u" points="189.093 267.549 190.233 268.086 206.971 248.229 206.406 247.011 189.093 267.549"/><polygon class="u" points="200.984 273.125 212.305 259.699 211.737 258.481 199.844 272.589 200.984 273.125"/><polygon class="u" points="194.466 270.073 195.609 270.607 209.639 253.962 209.071 252.747 194.466 270.073"/><polygon class="u" points="186.487 252.845 186.618 254.577 201.639 236.761 201.073 235.543 186.487 252.845"/><polygon class="u" points="185.87 244.679 186 246.412 198.971 231.03 198.405 229.809 185.87 244.679"/><polygon class="u" points="184.637 228.346 184.77 230.083 193.639 219.557 193.073 218.344 184.637 228.346"/><polygon class="u" points="184.018 220.183 184.152 221.916 187.926 217.438 185.883 217.969 184.018 220.183"/><polygon class="u" points="185.254 236.511 185.387 238.245 196.305 225.296 195.738 224.077 185.254 236.511"/><polygon class="j" points="192.138 216.338 183.893 218.489 178.141 211.323 178.792 207.516 191.225 204.271 193.651 207.272 192.138 216.338"/><polygon class="u" points="178.522 209.076 192.474 214.321 192.679 213.096 178.735 207.854 178.522 209.076"/><polygon class="u" points="182.431 216.672 185.883 217.969 187.926 217.438 180.936 214.81 182.431 216.672"/><polygon class="u" points="185.804 205.686 193.438 208.557 193.642 207.335 187.844 205.154 185.804 205.686"/><polygon class="o" points="115.852 116.071 83.324 133.349 113.879 190.854 146.407 173.564 115.852 116.071"/><path class="t" d="M115.22971,145.18164l-3.82876-7.20442-1.07077.57191,3.63535,6.84025A9.72536,9.72536,0,0,1,115.22971,145.18164Z"/><path class="t" d="M119.12227,160.176c-.17446.0994-.34306.20466-.526.301-.17908.10094-.3657.18061-.54694.26646l4.78964,9.01184,1.07154-.56883Z"/><path class="t" d="M111.13835,146.44135c.18139-.09478.36416-.17754.54478-.26029l-4.79041-9.01493-1.06923.57036,4.78887,9.01185C110.787,146.64755,110.957,146.53921,111.13835,146.44135Z"/><path class="t" d="M124.68632,165.56386l1.07462-.56729-3.828-7.203a10.525,10.525,0,0,1-.8789.93315Z"/><path class="t" d="M114.50045,161.74266l3.8303,7.203,1.07154-.57052-3.63458-6.8401A10.60576,10.60576,0,0,1,114.50045,161.74266Z"/><path class="t" d="M108.68072,148.19915l-3.63611-6.84164-1.07154.57037,3.828,7.2A9.60982,9.60982,0,0,1,108.68072,148.19915Z"/><path class="t" d="M118.75656,150.93833l-3.101,1.65255c-.2512-1.19807-.30776-2.202.52752-2.6458A1.97368,1.97368,0,0,1,118.75656,150.93833Zm-4.23808,3.44487-3.47877,1.85119c.92637,1.3605,2.05293,1.39071,2.785,1.00234C114.81962,156.70844,114.76383,155.61887,114.51848,154.3832Zm5.1404,8.09688c-5.81,3.0884-12.66614,1.55622-15.31718-3.42837-2.645-4.98151-.0789-11.52218,5.73112-14.61042,5.816-3.09288,12.66907-1.55314,15.31641,3.42529C128.03564,152.84809,125.47491,159.38891,119.65888,162.48008Zm-5.03653-3.98672c1.97834-1.05952,1.67813-3.03847,1.27929-4.84158l3.32311-1.76689a4.22788,4.22788,0,0,1,.02481,2.87758l1.33184.26337a5.19975,5.19975,0,0,0-.20543-3.75493l1.39964-.745-.48977-.924-1.38762.733c-1.101-1.75179-2.91441-2.48921-4.485-1.65254-1.87138.99479-1.53958,2.87157-1.14829,4.64293l-3.697,1.96862a4.71157,4.71157,0,0,1-.00385-3.469l-1.38378-.2378a5.59347,5.59347,0,0,0,.24458,4.31483l-1.35.71184.49516.93315,1.34771-.71647C111.34378,159.09548,113.23858,159.22339,114.62235,158.49336Z"/><path class="t" d="M139.53608,164.81133l-20.27157-38.15317-4.2222-7.93892-7.94108,4.22159-13.18535,7.0087-7.94416,4.21866,4.22159,7.94323L110.467,180.25874l4.2239,7.9494,7.94339-4.22606,13.1852-7.00577,7.94046-4.223ZM121.88626,182.164a7.80027,7.80027,0,0,0-4.37277-3.19813,7.9103,7.9103,0,0,0-5.415.21376L92.00227,141.36352a7.91053,7.91053,0,0,0,3.21015-4.36753,7.82406,7.82406,0,0,0-.21067-5.41642l12.84292-6.82515a8.21314,8.21314,0,0,0,9.793,2.98437l20.0985,37.81752a7.89949,7.89949,0,0,0-3.21323,4.37354,7.81058,7.81058,0,0,0,.20543,5.41349Z"/><path class="h" d="M344.4417,121.21a2.62308,2.62308,0,1,1-3.69777.29959A2.62491,2.62491,0,0,1,344.4417,121.21Z"/><path class="u" d="M407.86012,111.46073l-22.13848,26.038a4.06809,4.06809,0,0,1-5.73266.462l-.082-.07074a4.06,4.06,0,0,1-.95718-5.0071l13.7497-25.898a1.25832,1.25832,0,1,1,2.22291,1.17988l-13.752,25.898a1.54858,1.54858,0,0,0,.36725,1.9099l.07983.07059a1.5497,1.5497,0,0,0,2.18748-.17307l22.14078-26.038a1.25667,1.25667,0,1,1,1.91438,1.6285Z"/><path class="u" d="M381.7326,132.94161a1.25786,1.25786,0,0,1-1.61031.25583L352.1029,116.15775a1.55763,1.55763,0,0,0-1.99251.32055l-6.41291,7.54162a1.25669,1.25669,0,1,1-1.91575-1.627l6.41351-7.54146a4.06814,4.06814,0,0,1,5.2133-.8413l28.01923,17.03953a1.25658,1.25658,0,0,1,.42151,1.72621A.91348.91348,0,0,1,381.7326,132.94161Z"/><path class="h" d="M391.184,133.381a4.01039,4.01039,0,1,1-5.65206.45448A4.00924,4.00924,0,0,1,391.184,133.381Z"/><path class="u" d="M389.88374,134.907a2.00442,2.00442,0,1,1-2.82426.22886A2.00334,2.00334,0,0,1,389.88374,134.907Z"/><path class="h" d="M409.81288,111.46967a4.01131,4.01131,0,1,1-5.65129.45755A4.00773,4.00773,0,0,1,409.81288,111.46967Z"/><path class="u" d="M408.51324,112.99876a2.004,2.004,0,1,1-2.82564.22886A2.00235,2.00235,0,0,1,408.51324,112.99876Z"/><path class="u" d="M384.71852,90.70232a1.47922,1.47922,0,0,0-1.00911.51612l-24.76934,29.13084,22.32218,13.54043.00077.00154,16.52419-31.12043a1.48287,1.48287,0,0,0-.34768-1.82253l-11.64191-9.90138A1.48933,1.48933,0,0,0,384.71852,90.70232Zm-3.959,38.94022a.71478.71478,0,0,1-.08877.12051.9348.9348,0,0,1-1.1979.194l-15.88833-9.638a.93662.93662,0,1,1,.97445-1.59984l15.886,9.638A.93107.93107,0,0,1,380.75954,129.64254Zm2.34713-4.42317a.76436.76436,0,0,1-.07752.10542.93889.93889,0,0,1-1.21456.18663l-14.74527-9.31453a.93568.93568,0,1,1,1.00019-1.58165l14.74588,9.31129A.93463.93463,0,0,1,383.10667,125.21937Zm2.347-4.42162a1.00225,1.00225,0,0,1-.07.09324.93313.93313,0,0,1-1.22874.1686L370.549,112.07625a.93792.93792,0,0,1,1.03394-1.56516l13.60439,8.98935A.93913.93913,0,0,1,385.45364,120.79775Zm2.34265-4.42024c-.01819.02558-.03836.05117-.05656.07382a.93574.93574,0,0,1-1.24831.16244L374.02778,107.951a.93556.93556,0,1,1,1.06784-1.53649l12.46658,8.6597A.93692.93692,0,0,1,387.79629,116.37751Zm2.34173-4.41422a.60369.60369,0,0,1-.04146.05131.93282.93282,0,0,1-1.26787.14595l-11.32507-8.33776a.93662.93662,0,0,1,1.1113-1.508l11.32291,8.33776A.93564.93564,0,0,1,390.138,111.96329Zm2.33727-4.41562c-.00756.01064-.01511.01957-.02266.02867a.9375.9375,0,0,1-1.29269.13084l-10.1814-8.01413a.93719.93719,0,0,1-.15719-1.31534.92328.92328,0,0,1,1.31379-.158l10.18142,8.01413A.932.932,0,0,1,392.47529,107.54767Zm2.22737-5.731a.93748.93748,0,0,1-1.213,1.4297l-9.04282-7.6891a.93705.93705,0,0,1,1.21533-1.42662Z"/><path class="k" d="M150.0741,214.08814a2.92183,2.92183,0,0,1,.97229-1.36358c.09863-.09185.38759-.35076.48915-.44245,3.73536-3.57293,4.84759-10.01126,2.347-16.04629A17.0031,17.0031,0,0,0,148.962,189.54l-.28758.119a15.74426,15.74426,0,0,1,4.35921,6.023c2.88359,6.96354.54109,14.54877-5.23965,16.94475-5.77688,2.3929-12.80069-1.30933-15.68658-8.273a15.72039,15.72039,0,0,1-1.17834-7.33835l-.28973.12052a16.98206,16.98206,0,0,0,1.25739,8.21123c2.50062,6.03348,7.84553,9.799,13.01075,9.68008.137-.006.52521-.02851.65836-.03159a2.90824,2.90824,0,0,1,1.65023.27539,2.69391,2.69391,0,0,1,1.20485,1.34093l4.88,11.77369a3.24238,3.24238,0,0,1-1.57733,4.16133l-3.59466,1.70663a.4427.4427,0,0,0-.21668.23779.4178.4178,0,0,0,.00308.319l.05039.1219,7.744-3.21015,7.744-3.20861-.04977-.1219a.43632.43632,0,0,0-.54556-.24073l-3.75031,1.33631a3.24828,3.24828,0,0,1-4.05761-1.82407l-4.87918-11.77661A2.703,2.703,0,0,1,150.0741,214.08814Z"/><path class="l" d="M130.92909,197.01532a15.72039,15.72039,0,0,0,1.17834,7.33835c2.88589,6.9637,9.9097,10.66593,15.68658,8.273,5.78074-2.396,8.12324-9.98121,5.23965-16.94475a15.74426,15.74426,0,0,0-4.35921-6.023Z"/><path class="w" d="M134.17607,207.96574c3.4555,4.5406,8.945,6.59784,13.61794,4.661,4.67606-1.93688,7.10286-7.2767,6.32938-12.928Z"/><path class="u" d="M138.30426,206.25448a12.00245,12.00245,0,0,1-3.13633-7.17421,1.06584,1.06584,0,1,0-2.12582.158,14.08323,14.08323,0,0,0,3.19135,7.87574Z"/><path class="x" d="M143.68015,211.20749a1.06608,1.06608,0,0,0,.10618-2.12952,8.28192,8.28192,0,0,1-5.48207-2.82349l-2.0708.85949A10.68108,10.68108,0,0,0,143.68015,211.20749Z"/><polygon class="f" points="302.737 153.381 276.283 152.27 271.613 105.695 311.297 107.363 302.737 153.381"/><polygon class="h" points="305.941 136.29 274.523 134.969 273.372 122.995 308.092 124.453 305.941 136.29"/><polygon class="u" points="306.65 91.793 277.55 90.573 271.869 99.61 311.553 101.276 306.65 91.793"/><polygon class="u" points="313.348 105.326 269.737 103.495 268.966 105.582 313.941 107.472 313.348 105.326"/><rect class="k" x="289.64086" y="80.6016" width="3.97068" height="43.65064" transform="translate(177.05271 389.49839) rotate(-87.59513)"/><path class="u" d="M301.72465,130.14833a11.25374,11.25374,0,1,1-10.769-11.71651A11.25308,11.25308,0,0,1,301.72465,130.14833Z"/><path class="k" d="M290.8969,119.839a9.84693,9.84693,0,1,0,9.42271,10.252A9.84563,9.84563,0,0,0,290.8969,119.839Zm-.80369,19.11342a9.28417,9.28417,0,1,1,9.66436-8.88548A9.29594,9.29594,0,0,1,290.09321,138.95244Z"/><rect class="h" x="288.8196" y="140.90748" width="1.32181" height="25.15681" transform="translate(123.98932 436.27475) rotate(-87.5964)"/><path class="y" d="M255.80856,220.07339l-9.182.82034a6.143,6.143,0,0,1-5.57376,6.66857l2.73379,30.60123,21.42078-1.913-2.73317-30.60262A6.14157,6.14157,0,0,1,255.80856,220.07339Zm-4.14546,5.409a.92087.92087,0,1,1,.83606-1.00081A.9218.9218,0,0,1,251.6631,225.48241Z"/><path class="i" d="M254.98236,221.13445l-7.35576.65775a7.14077,7.14077,0,0,1-5.51427,6.59337l2.5675,28.71089,19.46187-1.73839-2.56674-28.7078A7.147,7.147,0,0,1,254.98236,221.13445Zm5.68658,6.40828,2.40584,26.926-17.50387,1.56224-2.40507-26.92443a8.14941,8.14941,0,0,0,5.354-6.40535l5.74313-.51473A8.15294,8.15294,0,0,0,260.66894,227.54273Z"/><path class="j" d="M251.44565,223.03526a1.53585,1.53585,0,1,0,1.666,1.3921A1.53257,1.53257,0,0,0,251.44565,223.03526Zm.21745,2.44715a.92087.92087,0,1,1,.83606-1.00081A.9218.9218,0,0,1,251.6631,225.48241Z"/><path class="i" d="M251.11832,251.26764l-1.28375.11281-1.63452-18.27968,1.2853-.11743Zm1.83532-18.59283-1.28607.11589,1.6359,18.28276,1.28375-.1159Zm4.28616,8.83277-1.28452.113.81648,9.1413,1.28452-.11281Z"/><path class="f" d="M384.74857,191.61848a7.561,7.561,0,1,1-2.69988-10.34245A7.5667,7.5667,0,0,1,384.74857,191.61848Z"/><path class="d" d="M385.19781,190.85085a7.561,7.561,0,1,1-2.69912-10.34076A7.56191,7.56191,0,0,1,385.19781,190.85085Z"/><path class="e" d="M375.81486,191.91191a5.66017,5.66017,0,1,1,7.74628-2.02118A5.66139,5.66139,0,0,1,375.81486,191.91191Z"/><path class="f" d="M374.00513,184.9949a5.65606,5.65606,0,0,1,10.23472,1.02947,5.65567,5.65567,0,1,0-10.915,2.84A5.64753,5.64753,0,0,1,374.00513,184.9949Z"/><path class="f" d="M122.04423,109.04672a8.1377,8.1377,0,1,1-11.11054-2.977A8.13979,8.13979,0,0,1,122.04423,109.04672Z"/><path class="d" d="M121.56571,108.219a8.137,8.137,0,1,1-11.10915-2.977A8.137,8.137,0,0,1,121.56571,108.219Z"/><path class="e" d="M117.56774,117.562a6.09206,6.09206,0,1,1,2.23031-8.3242A6.09475,6.09475,0,0,1,117.56774,117.562Z"/><path class="f" d="M110.13446,115.57536a6.088,6.088,0,0,1,6.40751-9.02849,6.0876,6.0876,0,1,0-3.14989,11.72391A6.081,6.081,0,0,1,110.13446,115.57536Z"/><path class="f" d="M417.83824,179.03509a5.03278,5.03278,0,1,1-1.97756-6.83409A5.03479,5.03479,0,0,1,417.83824,179.03509Z"/><path class="d" d="M418.12273,178.51589a5.03217,5.03217,0,1,1-1.976-6.83271A5.034,5.034,0,0,1,418.12273,178.51589Z"/><path class="e" d="M411.89877,179.38723a3.76863,3.76863,0,1,1,5.11852-1.4824A3.76971,3.76971,0,0,1,411.89877,179.38723Z"/><path class="f" d="M410.57356,174.8152a3.766,3.766,0,0,1,6.82824.50564,3.76386,3.76386,0,1,0-7.2112,2.08143A3.74342,3.74342,0,0,1,410.57356,174.8152Z"/><path class="d" d="M212.56322,193.08886a1.10713,1.10713,0,0,0-.01509-.85794l-13.94683-32.1573a1.11736,1.11736,0,0,0-1.47115-.57946,8.19858,8.19858,0,0,0-4.26289,10.78938l8.31064,19.15718a8.19954,8.19954,0,0,0,10.79077,4.26212A1.11092,1.11092,0,0,0,212.56322,193.08886Z"/><path class="w" d="M214.56406,193.5945a1.31,1.31,0,0,1-1.71712-.67871l-14.54215-33.52534a1.30917,1.30917,0,0,1,.6781-1.71727h0a1.30752,1.30752,0,0,1,1.71634.67871l14.54215,33.52534a1.3098,1.3098,0,0,1-.67732,1.71727Z"/><path class="u" d="M205.61016,186.23057c1.27913-4.3871-.81356-15.52862-.81356-15.52862s8.03755,16.099,10.76009,20.22564C213.85823,189.15777,205.08032,188.0531,205.61016,186.23057Z"/><path class="d" d="M218.07673,191.05412l-14.84-34.21176h0a13.056,13.056,0,0,1,17.16836,6.78154L224.856,173.885a13.05228,13.05228,0,0,1-6.77923,17.16914Z"/><path class="w" d="M217.41451,192.35744a1.31091,1.31091,0,0,1-1.71711-.67578l-14.54277-33.52842a1.30691,1.30691,0,0,1,.67871-1.71573h0a1.3055,1.3055,0,0,1,1.71573.67732l14.54276,33.52689a1.30782,1.30782,0,0,1-.67732,1.71572Z"/><path class="o" d="M216.22107,190.565c-10.483-18.17442-10.389-26.54824-13.83986-32.26564a1.8712,1.8712,0,0,0-2.10563-.91511,2.67689,2.67689,0,0,0-1.73746,3.22525c.763,3.302,3.70223,3.05666,4.90707,5.41642,1.827,3.5774-.66221,5.01927.6818,8.11353,1.50567,3.478,5.1478,4.77978,7.33387,10.90819,1.815,5.08538,1.89173,6.37962,2.87218,7.42711a1.429,1.429,0,0,0,1.65547.50118C217.0579,192.51248,216.57923,191.1865,216.22107,190.565Z"/><path class="f" d="M214.15166,162.9361a1.16048,1.16048,0,1,1,.5155-1.48533A1.11469,1.11469,0,0,1,214.15166,162.9361Z"/><path class="f" d="M218.23177,167.18928a1.066,1.066,0,1,1,.474-1.362A1.02276,1.02276,0,0,1,218.23177,167.18928Z"/><path class="f" d="M219.63819,179.04572a.7534.7534,0,1,1,.3318-.96474A.72064.72064,0,0,1,219.63819,179.04572Z"/><path class="f" d="M222.20955,183.24311a1.06746,1.06746,0,1,1,.47328-1.36358A1.02453,1.02453,0,0,1,222.20955,183.24311Z"/><path class="f" d="M217.76527,184.01367a.78495.78495,0,1,1,.34906-1.00234A.75429.75429,0,0,1,217.76527,184.01367Z"/><path class="f" d="M222.42623,175.50146a1.06661,1.06661,0,1,1,.47328-1.36358A1.02182,1.02182,0,0,1,222.42623,175.50146Z"/><path class="f" d="M212.75818,170.28955a1.73327,1.73327,0,1,1,.77117-2.21675A1.66133,1.66133,0,0,1,212.75818,170.28955Z"/><path class="f" d="M215.99992,170.26258a.55008.55008,0,1,1,.24381-.70445A.52591.52591,0,0,1,215.99992,170.26258Z"/><path class="f" d="M207.38,161.34844a.721.721,0,1,1,.32055-.92267A.69055.69055,0,0,1,207.38,161.34844Z"/><path class="f" d="M214.81249,176.82281a.93921.93921,0,1,1,.41687-1.20253A.90083.90083,0,0,1,214.81249,176.82281Z"/></g></svg>