<?xml version='1.0' encoding='utf-8'?>
<svg xmlns="http://www.w3.org/2000/svg" viewBox="0 0 500 500"><defs><style>.a{isolation:isolate;}.b{fill:#c66534;}.c{fill:#32373c;}.d{fill:#191e24;}.e{fill:#fff;}.f{fill:#e6e5e5;}.g{fill:#fa7564;}.h{fill:#565c5e;opacity:0.4;mix-blend-mode:screen;}</style></defs><title>115</title><g class="a"><rect class="b" width="500" height="500"/><path class="c" d="M347.54527,184.96375l-67.74669-39.10922,7.23681-12.54857a26.07875,26.07875,0,0,1,35.622-9.54546l22.58465,13.03592a26.07254,26.07254,0,0,1,9.54,35.622Z"/><rect class="d" x="307.15563" y="163.37419" width="8.68899" height="11.59005" transform="translate(9.26621 354.38587) rotate(-60.00649)"/><path class="c" d="M211.00694,145.86l-67.7394,39.11067-7.24408-12.54529a26.0724,26.0724,0,0,1,9.54-35.62021l22.57774-13.03738a26.08938,26.08938,0,0,1,35.62894,9.54873Z"/><rect class="d" x="173.51102" y="164.83368" width="11.58878" height="8.68962" transform="translate(-60.5527 112.25853) rotate(-29.98572)"/><rect class="d" x="242.50593" y="140.16751" width="5.79366" height="13.09634"/><rect class="c" x="233.8118" y="128.58018" width="23.18193" height="11.58732"/><polygon class="d" points="195.894 404.264 182.245 396.38 174.773 419.626 179.494 422.356 195.894 404.264"/><polygon class="d" points="294.912 404.264 308.561 396.38 316.032 419.626 311.304 422.356 294.912 404.264"/><path class="c" d="M377.018,283.66347A131.61528,131.61528,0,1,1,245.39921,152.04273,131.59938,131.59938,0,0,1,377.018,283.66347Z"/><path class="e" d="M356.93568,283.66347A111.5402,111.5402,0,1,1,245.39921,172.11272,111.52524,111.52524,0,0,1,356.93568,283.66347Z"/><path class="f" d="M245.39921,172.11272V395.20731a111.5473,111.5473,0,0,0,0-223.09459Z"/><path class="c" d="M245.39921,388.685A105.02679,105.02679,0,1,1,350.43846,283.66347,105.13982,105.13982,0,0,1,245.39921,388.685Zm0-205.71A100.68154,100.68154,0,1,0,346.08794,283.66347,100.79426,100.79426,0,0,0,245.39921,182.975Z"/><rect class="c" x="242.15761" y="283.65292" width="6.50449" height="52.5517"/><rect class="c" x="250.7946" y="281.47838" width="65.01692" height="4.34361"/><path class="c" d="M257.49819,283.65292a12.08833,12.08833,0,1,1-12.099-12.08305A12.10244,12.10244,0,0,1,257.49819,283.65292Z"/><polygon class="g" points="257.84 294.258 256.006 296.097 194.707 234.789 196.541 232.949 257.84 294.258"/><path class="g" d="M253.46068,283.65292a8.06138,8.06138,0,1,1-8.05419-8.0561A8.05925,8.05925,0,0,1,253.46068,283.65292Z"/><path class="c" d="M249.437,283.6602a4.02715,4.02715,0,1,1-4.03779-4.03424A4.03756,4.03756,0,0,1,249.437,283.6602Z"/><rect class="c" x="243.23096" y="180.80322" width="4.34361" height="11.58732"/><rect class="c" x="194.70326" y="193.81344" width="4.34298" height="11.58739" transform="translate(-73.43177 125.19569) rotate(-30.0034)"/><polygon class="c" points="167.459 236.15 165.291 239.911 155.253 234.121 157.428 230.355 167.459 236.15"/><rect class="c" x="142.56362" y="281.49094" width="11.58732" height="4.34434"/><polygon class="c" points="165.298 327.407 167.48 331.17 157.435 336.963 155.267 333.205 165.298 327.407"/><rect class="c" x="191.10303" y="365.53462" width="11.58566" height="4.34398" transform="translate(-219.98375 354.01269) rotate(-59.95088)"/><rect class="c" x="243.24879" y="374.91001" width="4.34689" height="11.58642"/><rect class="c" x="291.7769" y="361.90105" width="4.34344" height="11.5871" transform="translate(-144.60009 196.58019) rotate(-30.04497)"/><rect class="c" x="327.29693" y="326.37458" width="4.34489" height="11.58524" transform="translate(-122.80955 451.87054) rotate(-60.05802)"/><rect class="c" x="336.67569" y="281.46874" width="11.58387" height="4.34343"/><rect class="c" x="323.6649" y="232.94155" width="11.58387" height="4.34795" transform="matrix(0.86583, -0.50034, 0.50034, 0.86583, -73.43407, 196.3852)"/><rect class="c" x="288.13756" y="197.42519" width="11.58645" height="4.34353" transform="translate(-25.91105 354.30781) rotate(-59.99244)"/><path class="h" d="M245.39557,128.58018H233.8118v11.58733h8.69413v11.948a130.95745,130.95745,0,0,0-57.83,14.77934l-2.52339-4.37564L211.00694,145.86l-7.2368-12.54348a26.08938,26.08938,0,0,0-35.62894-9.54873l-22.57774,13.03738a26.0724,26.0724,0,0,0-9.54,35.62021l7.24408,12.54529,28.84747-16.656,2.534,4.3862a131.6045,131.6045,0,0,0,6.84225,226.02344L174.77344,419.626l4.72032,2.72977L194.9872,405.2645a131.166,131.166,0,0,0,50.40837,10.01971Z"/></g></svg>